<?xml version="1.0" encoding="utf-8"?>
<!-- Generator: Adobe Illustrator 16.0.3, SVG Export Plug-In . SVG Version: 6.00 Build 0)  -->
<!DOCTYPE svg PUBLIC "-//W3C//DTD SVG 1.1//EN" "http://www.w3.org/Graphics/SVG/1.1/DTD/svg11.dtd">
<svg version="1.1" id="Capa_1" xmlns="http://www.w3.org/2000/svg" xmlns:xlink="http://www.w3.org/1999/xlink" x="0px" y="0px"
	 width="200px" height="200px" viewBox="0 0 200 200" enable-background="new 0 0 200 200" xml:space="preserve">
<g>
	<path fill-rule="evenodd" clip-rule="evenodd" d="M193.94,98.375c-0.958,52.601-41.637,93.615-93.894,93.507
		c-52.511-0.108-93.42-41.399-93.385-93.567C6.696,45.711,48.108,4.7,100.351,4.807C152.84,4.914,193.042,46.188,193.94,98.375z
		 M100.289,21.81C58.507,21.084,23.651,56.561,23.514,98.07c-0.139,41.934,34.913,76.857,76.472,76.962
		c41.885,0.104,76.826-34.93,76.9-76.535C176.96,56.66,141.942,21.164,100.289,21.81z"/>
	<path fill-rule="evenodd" clip-rule="evenodd" d="M88.663,80.488c0-8.072-0.009-16.145,0.004-24.217
		c0.009-5.6,2.597-8.927,8.19-9.779c2.589-0.395,5.396-0.27,7.961,0.284c4.354,0.938,6.899,4.467,6.906,8.908
		c0.024,16.715,0.024,33.431,0,50.146c-0.006,4.512-2.481,7.852-6.837,8.961c-2.012,0.511-4.217,0.93-6.229,0.647
		c-7.78-1.091-9.994-3.833-9.995-11.712C88.662,95.98,88.662,88.234,88.663,80.488z"/>
	<path fill-rule="evenodd" clip-rule="evenodd" d="M111.467,139.554c-0.073,6.241-5.039,11.143-11.278,11.132
		c-6.338-0.012-11.361-5.105-11.253-11.409c0.107-6.176,5.204-11.247,11.285-11.232
		C106.415,128.062,111.539,133.306,111.467,139.554z"/>
</g>
</svg>
