<?xml version="1.0" encoding="utf-8"?>
<!-- Generator: Adobe Illustrator 16.0.3, SVG Export Plug-In . SVG Version: 6.00 Build 0)  -->
<!DOCTYPE svg PUBLIC "-//W3C//DTD SVG 1.1//EN" "http://www.w3.org/Graphics/SVG/1.1/DTD/svg11.dtd">
<svg version="1.1" id="Capa_1" xmlns="http://www.w3.org/2000/svg" xmlns:xlink="http://www.w3.org/1999/xlink" x="0px" y="0px"
	 width="170px" height="185px" viewBox="0 0 170 185" enable-background="new 0 0 170 185" xml:space="preserve">
<g>
	<path fill="#490D3D" d="M144.04,18.183c2.685,0.58,5.257,1.4,7.403,3.243c2.659,2.281,4.319,5.095,4.848,8.569
		c0.035,0.231,0.153,0.448,0.23,0.673c0,41.223,0,82.445,0,123.667c-0.574,2.642-1.363,5.172-3.155,7.301
		c-2.326,2.765-5.219,4.47-8.807,4.972c-0.181,0.028-0.348,0.139-0.521,0.209c-11.322,0-22.646,0-33.967,0c0-3.068,0-6.144,0-9.285
		c0.738,0,1.267,0,1.794,0c9.915,0,19.831,0,29.746-0.002c3.931,0,5.621-1.706,5.621-5.676c0-39.563,0-79.129,0-118.694
		c0-4.027-1.683-5.686-5.758-5.686c-22.298,0-44.597,0-66.893,0c-0.517,0-1.032,0-1.669,0c0,0.679,0,1.201,0,1.723
		c0,5.416,0.018,10.833-0.005,16.252c-0.024,5.986-3.928,9.869-9.933,9.891c-5.418,0.019-10.834,0.003-16.252,0.003
		c-0.519,0-1.033,0-1.707,0c0,4.713,0,9.278,0,13.823c-3.174,0-6.192,0-9.262,0c0-5.911,0.049-11.713-0.026-17.514
		c-0.028-2.042,0.675-3.592,2.106-5.015c8.615-8.553,17.17-17.168,25.786-25.72c1.041-1.034,2.319-1.828,3.484-2.732
		C92.75,18.184,118.396,18.184,144.04,18.183z"/>
</g>
<g>
	<path fill-rule="evenodd" clip-rule="evenodd" fill="#E87F13" d="M51.653,143.565c0.539-1.896,1.098-3.791,1.604-5.696
		c5.41-20.262,10.811-40.524,16.215-60.784c0.35-1.333,0.455-1.418,1.654-1.421c5.387,0,10.773,0,16.163,0.003
		c1.164,0,1.248,0.074,1.599,1.375c5.945,21.962,11.894,43.923,17.84,65.884c0.072,0.272,0.168,0.535,0.217,0.811
		c0.116,0.666-0.168,1.109-0.75,1.19c-0.171,0.023-0.345,0.015-0.519,0.015c-4.445,0-8.894-0.021-13.342,0.018
		c-0.809,0.006-1.19-0.316-1.416-1.208c-1.307-5.097-2.668-10.173-3.979-15.268c-0.168-0.651-0.411-0.867-1.02-0.863
		c-4.697,0.035-9.392,0.031-14.087,0.005c-0.559-0.002-0.796,0.16-0.955,0.819c-1.193,5.072-2.436,10.134-3.661,15.193
		c-0.29,1.202-0.402,1.304-1.482,1.304c-4.251,0-8.503,0.015-12.751-0.023c-0.443-0.006-0.886-0.327-1.33-0.501
		C51.653,144.133,51.653,143.85,51.653,143.565z M78.708,92.161c-1.686,7.244-3.422,14.694-5.166,22.175c3.574,0,7.125,0,10.695,0
		C82.372,106.85,80.519,99.404,78.708,92.161z"/>
	<path fill-rule="evenodd" clip-rule="evenodd" fill="#BC1550" d="M127.589,82.762c-0.354,1.406-0.716,2.796-1.535,3.979
		c-3.203,4.614-11.185,4.769-13.557-1.768c-1.789-4.934,0.224-11.538,6.502-12.041c3.649-0.295,6.614,1.631,7.892,4.977
		c0.305,0.791,0.47,1.648,0.698,2.473C127.589,81.176,127.589,81.97,127.589,82.762z"/>
	<path fill-rule="evenodd" clip-rule="evenodd" fill="#8A9B18" d="M127.148,119.575c0,7.925,0,15.848,0,23.771
		c0,1.422-0.153,1.596-1.416,1.596c-4.055,0-8.106,0.003-12.158,0c-1.152-0.003-1.326-0.197-1.326-1.532c0-15.901,0-31.807,0-47.71
		c0-1.285,0.224-1.533,1.347-1.535c4.075,0,8.152-0.002,12.23,0c1.104,0.002,1.323,0.262,1.323,1.558
		C127.148,103.673,127.148,111.624,127.148,119.575z"/>
</g>
</svg>
