<?xml version="1.0" encoding="utf-8"?>
<!-- Generator: Adobe Illustrator 16.0.3, SVG Export Plug-In . SVG Version: 6.00 Build 0)  -->
<!DOCTYPE svg PUBLIC "-//W3C//DTD SVG 1.1//EN" "http://www.w3.org/Graphics/SVG/1.1/DTD/svg11.dtd">
<svg version="1.1" id="Capa_1" xmlns="http://www.w3.org/2000/svg" xmlns:xlink="http://www.w3.org/1999/xlink" x="0px" y="0px"
	 width="170px" height="185px" viewBox="0 0 170 185" enable-background="new 0 0 170 185" xml:space="preserve">
<g>
	<path fill="#490D3D" d="M103.3,18.184c1.165,0.904,2.443,1.698,3.484,2.732c8.616,8.552,17.171,17.167,25.786,25.72
		c1.432,1.423,2.135,2.973,2.106,5.015c-0.075,5.801-0.026,11.603-0.026,17.514c-3.069,0-6.088,0-9.262,0c0-4.545,0-9.11,0-13.823
		c-0.674,0-1.188,0-1.707,0c-5.418,0-10.834,0.016-16.252-0.003c-6.005-0.022-9.908-3.905-9.933-9.891
		c-0.022-5.419-0.005-10.836-0.005-16.252c0-0.522,0-1.044,0-1.723c-0.637,0-1.152,0-1.669,0c-22.296,0-44.595,0-66.893,0
		c-4.075,0-5.757,1.659-5.757,5.686c0,39.565,0,79.131,0,118.694c0,3.97,1.69,5.676,5.621,5.676
		c9.915,0.002,19.831,0.002,29.746,0.002c0.527,0,1.055,0,1.794,0c0,3.142,0,6.217,0,9.285c-11.322,0-22.645,0-33.967,0
		c-0.173-0.07-0.34-0.181-0.521-0.209c-3.587-0.502-6.48-2.207-8.806-4.972c-1.792-2.129-2.581-4.659-3.155-7.301
		c0-41.222,0-82.444,0-123.667c0.077-0.225,0.195-0.442,0.23-0.673c0.528-3.474,2.188-6.288,4.848-8.569
		c2.146-1.843,4.718-2.663,7.403-3.243C52.01,18.184,77.656,18.184,103.3,18.184z"/>
	<path fill="#8A9B18" d="M162.521,126.466c-0.881,2.222-1.441,4.646-2.717,6.612c-2.298,3.55-5.838,5.529-10.082,5.727
		c-3.998,0.188-8.045,0.301-12.018-0.091c-7.137-0.706-11.992-6.246-12.28-13.583c3.015,0,6.028,0,9.058,0
		c1.195,3.77,2.256,4.53,6.365,4.53c2.465,0,4.934,0.019,7.397-0.005c2.937-0.029,5.015-2.012,4.978-4.707
		c-0.037-2.637-2.09-4.524-4.964-4.582c-3.672-0.068-7.382,0.162-11.001-0.297c-5.762-0.731-9.592-4.192-11.24-9.73
		c-1.615-5.433-0.172-10.218,3.914-14.136c2.557-2.448,5.713-3.617,9.209-3.664c3.769-0.05,7.558-0.124,11.299,0.22
		c6.023,0.553,10.939,5.469,11.838,11.402c0.041,0.279,0.16,0.55,0.244,0.82c0,0.483,0,0.969,0,1.453c-3.076,0-6.154,0-9.197,0
		c-0.725-3.408-2.24-4.641-5.567-4.646c-2.657-0.003-5.315-0.013-7.974,0.002c-3.055,0.021-5.155,1.958-5.121,4.7
		c0.029,2.683,2.107,4.566,5.089,4.587c2.802,0.017,5.604-0.022,8.406,0.008c4.778,0.054,8.709,1.863,11.634,5.709
		c1.523,2.009,2.208,4.354,2.73,6.767C162.521,124.531,162.521,125.498,162.521,126.466z"/>
	<path fill="#E87F13" d="M120.648,106.384c-3.104,0-6.09,0-9.066,0c-1.025-3.663-2.27-4.593-6.105-4.593
		c-2.465,0-4.934-0.008-7.4,0.002c-3.108,0.016-5.2,1.872-5.219,4.611c-0.017,2.746,2.084,4.634,5.158,4.684
		c3.625,0.059,7.269-0.068,10.865,0.275c7.059,0.674,12.631,7.933,11.713,14.945c-0.923,7.082-5.56,11.844-12.71,12.477
		c-3.978,0.354-8.044,0.313-12.018-0.077c-7.109-0.698-12.048-6.364-12.241-13.69c1.531,0,3.063,0,4.596,0c1.495,0,2.989,0,4.461,0
		c1.039,3.717,2.279,4.645,6.116,4.645c2.47,0,4.937,0.008,7.399-0.002c3.109-0.014,5.203-1.871,5.221-4.615
		c0.02-2.744-2.08-4.629-5.159-4.679c-3.62-0.062-7.266,0.067-10.862-0.276c-7.061-0.674-12.63-7.936-11.715-14.947
		c0.925-7.078,5.563-11.846,12.713-12.477c3.977-0.351,8.043-0.311,12.017,0.08C115.518,93.439,120.459,99.105,120.648,106.384z"/>
	<path fill="#BC1550" d="M69.679,120.425c3.063,0,6.051,0,9.187,0c0.05,3.196-0.75,6.122-2.253,8.861
		c-4.057,7.381-12.464,11.093-20.589,9.123c-8.242-1.995-14.074-9.118-14.228-17.591c-0.074-4.152-0.208-8.348,0.275-12.457
		c1.03-8.725,8.498-15.396,17.214-15.823c8.968-0.443,16.954,5.429,19.037,14.045c0.337,1.399,0.468,2.845,0.711,4.396
		c-3.204,0-6.227,0-9.36,0c-0.245-2.754-1.212-5.192-3.438-7.021c-5.474-4.5-13.974-1.548-14.903,5.468
		c-0.547,4.127-0.418,8.419-0.017,12.579c0.427,4.456,4.563,7.648,9.022,7.646c4.463-0.002,8.297-3.221,9.103-7.646
		C69.525,121.529,69.585,121.049,69.679,120.425z"/>
</g>
</svg>
