<?xml version="1.0" encoding="utf-8"?>
<!-- Generator: Adobe Illustrator 16.0.3, SVG Export Plug-In . SVG Version: 6.00 Build 0)  -->
<!DOCTYPE svg PUBLIC "-//W3C//DTD SVG 1.1//EN" "http://www.w3.org/Graphics/SVG/1.1/DTD/svg11.dtd">
<svg version="1.1" id="Capa_1" xmlns="http://www.w3.org/2000/svg" xmlns:xlink="http://www.w3.org/1999/xlink" x="0px" y="0px"
	 width="160px" height="190px" viewBox="0 0 160 190" enable-background="new 0 0 160 190" xml:space="preserve">
<g>
	<path fill="#490D3D" stroke="#490D3D" stroke-miterlimit="10" d="M125.24,8.44c1.186,0.739,2.503,1.334,3.527,2.254
		c1.619,1.458,2.072,3.479,2.067,5.617c-0.014,5.33-0.048,10.661,0.038,15.989c0.018,0.83,0.435,1.847,1.011,2.447
		c3.398,3.533,6.887,6.991,10.387,10.428c0.928,0.909,1.374,1.866,1.372,3.197c-0.028,32.348-0.021,64.692-0.024,97.039
		c0,4.779-2.915,7.715-7.674,7.729c-4.798,0.019-9.604,0.068-14.401-0.063c-0.818-0.023-1.911-0.723-2.335-1.432
		c-0.332-0.556-0.082-1.812,0.373-2.39c0.422-0.538,1.459-0.813,2.229-0.826c4.696-0.067,9.392-0.022,14.088-0.039
		c2.141-0.004,2.969-0.834,2.969-2.968c0.006-31.45,0.006-62.899,0.004-94.348c0-0.312-0.028-0.624-0.054-1.153
		c-0.59,0-1.147,0-1.703,0c-6.859,0-13.719,0.003-20.579-0.003c-2.55,0-3.305-0.754-3.309-3.286c-0.005-6.808,0-13.614-0.002-20.421
		c0-0.576,0-1.148,0-1.937c-0.651,0-1.207,0-1.767,0c-25.063,0-50.129,0-75.193,0c-2.773,0-3.464,0.683-3.465,3.438
		c-0.002,3.747,0.009,7.493-0.006,11.239c-0.007,1.844-0.914,2.911-2.398,2.885c-1.411-0.023-2.33-1.086-2.337-2.812
		c-0.023-4.113-0.049-8.231,0.007-12.346c0.053-4.067,3.089-7.136,7.137-7.14c26.65-0.025,53.294-0.025,79.943,0.034
		c0.877,0.003,1.939,0.545,2.596,1.169c2.705,2.575,5.291,5.279,8.124,8.138c0.109-0.633,0.207-0.962,0.208-1.29
		c0.012-3.746,0.023-7.494,0.003-11.24c-0.016-2.315-0.865-3.155-3.163-3.155c-32.713-0.007-65.432-0.007-98.146-0.005
		c-2.277,0.002-3.081,0.78-3.081,3.01c-0.003,39.363-0.003,78.727,0,118.091c0,2.226,0.81,2.996,3.083,3.014
		c1.041,0.011,2.083,0.003,3.28,0.003c0-0.767,0-1.386,0-2.003c0-27.806,0-55.614,0-83.423c0-2.555,0.756-3.709,2.41-3.689
		c1.648,0.018,2.339,1.12,2.339,3.739c0.001,30.92,0,61.843,0.001,92.763c0,3.083,0.615,3.7,3.693,3.7
		c4.485,0.002,8.97-0.007,13.452,0.004c1.947,0.003,3.088,0.922,3.049,2.417c-0.044,1.44-1.145,2.317-3.001,2.323
		c-4.854,0.014-9.709,0.03-14.563-0.006c-4.338-0.031-7.321-3.057-7.379-7.406c-0.014-1.153-0.001-2.306-0.001-3.669
		c-1.342,0-2.587,0.021-3.835-0.002c-4.259-0.074-7.27-3.063-7.27-7.325c-0.013-39.628-0.007-79.256-0.011-118.885
		c0-3.947,2.206-6.178,5.716-7.406C56.846,8.44,91.043,8.44,125.24,8.44z M134.803,45.078c-5.55-5.537-11.213-11.188-16.729-16.697
		c0,5.348,0,11.005,0,16.697C123.818,45.078,129.471,45.078,134.803,45.078z"/>
	<path fill="#490D3D" d="M82.811,170.56c-2.627-0.709-5.343-1.192-7.867-2.165c-12.556-4.849-20.221-17.715-18.682-31.116
		c1.518-13.208,11.871-23.974,25.002-25.986c15.828-2.43,30.871,8.012,33.86,23.498c3.08,15.996-6.697,31.248-22.444,34.988
		c-1.276,0.304-2.57,0.522-3.854,0.781C86.823,170.56,84.817,170.56,82.811,170.56z M60.857,140.749
		c0.008,13.84,11.25,25.07,25.07,25.057c13.814-0.013,25.069-11.286,25.057-25.097c-0.013-13.828-11.274-25.053-25.102-25.028
		C71.999,115.71,60.846,126.881,60.857,140.749z"/>
	<path fill="#8A9B18" d="M94.599,77.748c-8.899,0-17.799,0.002-26.696-0.006c-0.623,0-1.265,0.016-1.864-0.128
		c-1.095-0.257-1.656-1.041-1.689-2.173c-0.028-1.131,0.494-1.953,1.571-2.265c0.59-0.17,1.235-0.172,1.854-0.172
		c17.951-0.008,35.906-0.008,53.858-0.005c0.467,0,0.942-0.011,1.402,0.069c1.314,0.23,2.053,1.065,2.002,2.4
		c-0.045,1.25-0.773,2.044-2.032,2.213c-0.565,0.076-1.143,0.063-1.716,0.063C112.395,77.749,103.494,77.748,94.599,77.748z"/>
	<path fill="#F6C911" d="M94.74,87.03c8.896,0,17.795-0.001,26.695,0.002c0.571,0,1.154-0.032,1.712,0.068
		c1.175,0.21,2.005,1.041,1.836,2.163c-0.122,0.831-0.866,1.659-1.52,2.28c-0.334,0.315-1.091,0.226-1.654,0.229
		c-18.058,0.007-36.118,0.007-54.175-0.002c-0.617,0-1.265-0.034-1.838-0.233c-1.06-0.372-1.526-1.231-1.436-2.356
		c0.09-1.131,0.714-1.858,1.811-2.069c0.556-0.106,1.142-0.078,1.713-0.078C76.833,87.029,85.783,87.03,94.74,87.03z"/>
	<path fill="#490D3D" d="M83.719,101.317c5.41,0,10.819-0.003,16.229,0.002c2.021,0.003,3.024,0.799,3.02,2.356
		c-0.002,1.544-1.04,2.387-3.025,2.387c-10.871,0.007-21.739,0.01-32.611,0c-1.927-0.005-2.979-0.923-2.936-2.475
		c0.046-1.491,1.023-2.266,2.943-2.268C72.797,101.313,78.259,101.317,83.719,101.317z"/>
	<path fill="#BC1550" d="M117.248,101.319c1.771,0,3.533-0.027,5.298,0.011c1.484,0.03,2.46,0.935,2.516,2.239
		c0.058,1.36-0.936,2.45-2.469,2.477c-3.584,0.053-7.167,0.047-10.751,0.002c-1.562-0.022-2.516-1.037-2.49-2.433
		c0.027-1.407,0.973-2.265,2.602-2.289C113.718,101.298,115.484,101.319,117.248,101.319z"/>
	<path fill="#BC1550" d="M83.504,148.813c0-6.056,0-12.11,0-18.172c0-1.314-0.031-2.635,0.012-3.95
		c0.059-1.684,1.065-2.728,2.492-2.666c1.36,0.06,2.232,1.071,2.237,2.717c0.017,6.962,0.009,13.922,0.009,20.883
		c0,0.407,0,0.812,0,1.756c1.525-1.53,2.725-2.725,3.923-3.917c0.821-0.821,1.612-1.673,2.478-2.446
		c1.039-0.927,2.354-0.896,3.271-0.008c0.927,0.904,1.059,2.264,0.083,3.265c-3.459,3.546-6.961,7.058-10.512,10.514
		c-1.003,0.982-2.26,0.923-3.268-0.068c-3.457-3.405-6.89-6.836-10.292-10.295c-1.036-1.052-1.004-2.473-0.084-3.396
		c0.93-0.929,2.34-0.972,3.402,0.063c1.99,1.943,3.902,3.961,5.848,5.949C83.235,148.962,83.37,148.89,83.504,148.813z"/>
</g>
<g>
	<path fill="#E87F13" d="M46.537,66.791c-1.61-1.746-2.414-4.208-2.414-7.388v-21.87c0-3.18,0.804-5.642,2.414-7.388
		c1.608-1.745,3.944-2.618,7.008-2.618c3.063,0,5.399,0.873,7.01,2.618c1.609,1.746,2.414,4.208,2.414,7.388v4.304H56.92v-4.712
		c0-2.52-1.067-3.781-3.199-3.781s-3.199,1.261-3.199,3.781v22.743c0,2.482,1.067,3.723,3.199,3.723s3.199-1.241,3.199-3.723v-6.224
		h6.049v5.759c0,3.18-0.805,5.642-2.414,7.388c-1.61,1.745-3.947,2.617-7.01,2.617C50.481,69.408,48.145,68.536,46.537,66.791z"/>
	<path fill="#E87F13" d="M65.121,28.11h6.457l4.188,31.584h0.116L80.07,28.11h5.875l-6.166,40.717h-8.493L65.121,28.11z"/>
</g>
</svg>
