<?xml version="1.0" encoding="utf-8"?>
<!-- Generator: Adobe Illustrator 16.0.3, SVG Export Plug-In . SVG Version: 6.00 Build 0)  -->
<!DOCTYPE svg PUBLIC "-//W3C//DTD SVG 1.1//EN" "http://www.w3.org/Graphics/SVG/1.1/DTD/svg11.dtd">
<svg version="1.1" id="Capa_1" xmlns="http://www.w3.org/2000/svg" xmlns:xlink="http://www.w3.org/1999/xlink" x="0px" y="0px"
	 width="170px" height="185px" viewBox="0 0 170 185" enable-background="new 0 0 170 185" xml:space="preserve">
<g>
	<path fill="#919191" d="M164.25,154.979c-0.732,1.637-2.007,2.182-3.771,2.179c-25.438-0.033-50.871-0.021-76.308-0.023
		c-0.392,0-0.787-0.003-1.174-0.05c-1.478-0.186-2.51-1.298-2.57-2.744c-0.058-1.453,0.857-2.671,2.318-2.955
		c0.665-0.13,1.362-0.125,2.047-0.125c23.817-0.007,47.638-0.007,71.456-0.007c0.636,0,1.27,0,2.014,0c0-15.237,0-30.399,0-45.646
		c-37.15,0-74.279,0-111.532,0c0,15.131,0,30.285,0,45.646c1.538,0,3.085-0.004,4.632,0c1.862,0.007,3.728-0.054,5.585,0.042
		c1.73,0.09,2.896,1.364,2.886,2.934c-0.011,1.584-1.198,2.853-2.917,2.873c-4.411,0.055-8.823,0.06-13.233,0.002
		c-1.934-0.022-2.948-1.207-2.953-3.271c-0.016-5.879-0.006-11.763-0.006-17.642c0-0.534,0-1.066,0-1.81c-0.605,0-1.123,0-1.639,0
		c-5.391,0-10.782,0.004-16.172-0.002c-4.66-0.003-7.606-2.2-9.001-6.685c-0.042-0.133-0.153-0.24-0.231-0.362
		c0-32.642,0-65.287,0-97.93c2.119-5.423,4.367-7.152,9.408-7.152c37.739-0.004,75.478-0.004,113.218,0.006
		c0.971,0.004,1.977,0.037,2.911,0.272c4.033,1.006,6.495,4.381,6.495,8.842c0.008,22.154,0.004,44.306,0.004,66.458
		c0,0.565,0,1.133,0,1.807c5.057,0,9.901,0.058,14.746-0.028c1.775-0.03,3.034,0.524,3.787,2.141
		C164.25,119.491,164.25,137.234,164.25,154.979z M40.724,128.494c0-0.699,0-1.229,0-1.758c0-7.644,0-15.287,0-22.935
		c0-3.372,0.785-4.165,4.134-4.165c31.021,0,62.042,0,93.063,0c0.613,0,1.229,0,1.813,0c0-14.965,0-29.689,0-44.423
		c-40.102,0-80.101,0-120.172,0c0,0.52,0,0.909,0,1.299c0,22.836,0,45.672,0,68.51c0,0.246-0.007,0.49,0.006,0.734
		c0.109,1.611,1.106,2.709,2.705,2.719C28.347,128.521,34.42,128.494,40.724,128.494z M139.835,49.138c0-0.675,0-1.209,0-1.739
		c0-5.095,0-10.192,0-15.287c0-3.236-0.739-3.98-3.966-3.98c-15.189-0.002-30.378-0.002-45.571-0.002
		c-22.242,0-44.489,0-66.733,0.002c-3.269,0-4.003,0.722-4.003,3.933c0,5.146,0,10.29,0,15.438c0,0.522,0,1.046,0,1.636
		C59.699,49.138,99.666,49.138,139.835,49.138z"/>
	<path fill="#919191" d="M123.475,129.316c-0.914,3.185-1.826,6.369-2.738,9.555c-0.646,2.264-1.75,3.289-3.545,3.281
		c-1.774-0.008-2.854-1.022-3.53-3.312c-0.86-2.905-1.726-5.813-2.595-8.716c-0.092-0.309-0.228-0.604-0.473-1.229
		c-0.648,3.549-1.22,6.748-1.826,9.941c-0.434,2.279-1.738,3.436-3.463,3.137c-1.859-0.317-2.707-1.858-2.289-4.172
		c1.188-6.598,2.379-13.191,3.569-19.787c0.394-2.18,1.455-3.287,3.229-3.39c1.881-0.108,3.074,0.842,3.729,3.034
		c1.035,3.465,2.047,6.938,3.071,10.408c0.134,0.442,0.291,0.88,0.574,1.729c0.761-2.634,1.412-4.863,2.051-7.098
		c0.512-1.784,0.992-3.582,1.521-5.362c0.553-1.853,1.787-2.782,3.521-2.722c1.691,0.059,2.874,1.094,3.252,3.013
		c1.355,6.912,2.689,13.829,3.998,20.747c0.337,1.779-0.746,3.313-2.42,3.6c-1.563,0.27-3.018-0.797-3.366-2.556
		c-0.624-3.119-1.196-6.246-1.794-9.369c-0.043-0.229-0.123-0.452-0.186-0.681C123.669,129.354,123.572,129.335,123.475,129.316z"/>
	<path fill="#919191" d="M68.587,130.989c-3.155,0-6.074,0-9.191,0c0,0.793,0.004,1.51,0,2.231c-0.015,2.106,0.04,4.217-0.077,6.315
		c-0.087,1.571-1.318,2.6-2.834,2.612c-1.519,0.009-2.671-1-2.904-2.563c-0.051-0.337-0.063-0.685-0.063-1.024
		c-0.002-6.811-0.002-13.619,0-20.43c0-0.245,0-0.488,0.027-0.734c0.186-1.732,1.363-2.818,3.003-2.777
		c1.566,0.04,2.728,1.12,2.803,2.808c0.088,1.954,0.038,3.921,0.045,5.878c0.001,0.527,0,1.059,0,1.656c3.094,0,6.018,0,9.191,0
		c0-1.268-0.004-2.518,0-3.768c0.007-1.319-0.039-2.648,0.05-3.965c0.102-1.492,1.236-2.527,2.687-2.604
		c1.489-0.076,2.673,0.787,3.005,2.248c0.107,0.473,0.133,0.968,0.135,1.456c0.007,6.711,0.005,13.423,0.002,20.135
		c0,0.391-0.009,0.787-0.077,1.169c-0.287,1.632-1.512,2.606-3.101,2.499c-1.503-0.102-2.615-1.188-2.666-2.785
		c-0.07-2.205-0.029-4.41-0.035-6.613C68.586,132.203,68.587,131.673,68.587,130.989z"/>
	<path fill="#919191" d="M86.37,120.455c-1.151,0-2.083,0.057-3.005-0.014c-1.81-0.135-2.984-1.381-2.929-3.026
		c0.052-1.604,1.211-2.772,2.979-2.796c3.967-0.049,7.937-0.049,11.901,0c1.738,0.021,2.934,1.232,2.986,2.813
		c0.051,1.563-1.111,2.846-2.824,2.994c-1.011,0.088-2.033,0.018-3.228,0.018c0,0.715,0,1.236,0,1.763
		c-0.002,5.582,0.019,11.167-0.011,16.751c-0.014,2.275-1.736,3.646-3.758,3.077c-1.344-0.38-2.103-1.526-2.106-3.32
		c-0.015-5.485-0.007-10.972-0.007-16.455C86.37,121.727,86.37,121.195,86.37,120.455z"/>
	<path fill="#919191" d="M143.834,136.288c1.613,0,2.982-0.03,4.348,0.009c1.982,0.055,3.187,1.156,3.209,2.88
		c0.021,1.738-1.152,2.915-3.115,2.966c-2.399,0.059-4.803,0.063-7.202-0.004c-2.024-0.054-3.091-1.115-3.101-3.139
		c-0.033-7.055-0.029-14.111-0.004-21.167c0.008-1.989,1.143-3.188,2.863-3.218c1.781-0.025,2.973,1.195,2.986,3.256
		c0.037,5.488,0.016,10.977,0.017,16.464C143.834,134.914,143.834,135.491,143.834,136.288z"/>
	<path fill="#919191" d="M70.117,157.107c-1.676-0.002-2.958-1.309-2.919-2.972c0.036-1.581,1.341-2.854,2.919-2.853
		c1.622,0.003,2.986,1.395,2.94,3.002C73.013,155.877,71.731,157.107,70.117,157.107z"/>
	<path fill="#919191" d="M33.875,77.596c2.218,2.681,4.397,5.256,6.506,7.886c1.565,1.95,0.786,4.589-1.524,4.866
		c-0.904,0.109-2.218-0.354-2.818-1.027c-2.835-3.174-5.506-6.494-8.195-9.799c-1.015-1.245-0.991-2.636,0.037-3.896
		c2.66-3.263,5.342-6.507,8.054-9.725c1.184-1.406,2.867-1.588,4.168-0.558c1.338,1.059,1.52,2.808,0.328,4.292
		C38.32,72.27,36.142,74.853,33.875,77.596z"/>
	<path fill="#919191" d="M74.086,77.596c-2.25-2.724-4.422-5.311-6.543-7.936c-1.19-1.48-1.034-3.232,0.292-4.3
		c1.252-1.014,2.945-0.915,4.07,0.41c2.788,3.282,5.526,6.608,8.238,9.956c0.963,1.187,0.959,2.576-0.014,3.773
		c-2.684,3.307-5.398,6.589-8.149,9.838c-1.182,1.396-2.896,1.536-4.177,0.482c-1.264-1.039-1.452-2.79-0.326-4.194
		C69.617,82.956,71.821,80.339,74.086,77.596z"/>
	<path fill="#919191" d="M59.573,65.98c-0.532,2.39-1.147,5.154-1.761,7.917c-1.177,5.295-2.351,10.588-3.534,15.881
		c-0.462,2.07-1.909,3.167-3.605,2.765c-1.746-0.413-2.578-1.972-2.125-4.02c1.705-7.68,3.411-15.357,5.126-23.037
		c0.106-0.472,0.228-0.961,0.45-1.385c0.629-1.211,2.079-1.782,3.388-1.399C58.758,63.073,59.581,64.22,59.573,65.98z"/>
	<path fill="#919191" d="M101.195,88.755c-3.674,0-7.348,0.023-11.021-0.009c-1.927-0.02-3.16-1.06-3.304-2.654
		c-0.168-1.882,1.075-3.202,3.128-3.207c6.516-0.021,13.031-0.009,19.547-0.009c1.029,0,2.059-0.024,3.086,0.009
		c1.711,0.061,2.938,1.232,2.986,2.813c0.05,1.565-1.1,2.884-2.813,3.006c-1.611,0.115-3.23,0.047-4.849,0.051
		C105.703,88.76,103.45,88.755,101.195,88.755z"/>
	<path fill="#919191" d="M117.934,67.764c3.674,0.002,7.35-0.024,11.022,0.013c2.174,0.021,3.446,1.337,3.265,3.25
		c-0.136,1.421-1.181,2.468-2.74,2.561c-1.562,0.093-3.133,0.054-4.699,0.056c-5.682,0.004-11.363,0.002-17.047,0
		c-0.487,0-0.981,0.004-1.467-0.041c-1.64-0.164-2.775-1.333-2.804-2.856c-0.026-1.57,1.147-2.879,2.863-2.94
		c2.542-0.088,5.093-0.037,7.639-0.042C115.289,67.762,116.611,67.764,117.934,67.764z"/>
	<path fill="#919191" d="M126.938,82.892c0.879,0,1.762-0.049,2.637,0.012c1.48,0.101,2.55,1.197,2.652,2.63
		c0.104,1.482-0.703,2.869-2.17,3.015c-2.072,0.204-4.189,0.214-6.263,0.018c-1.524-0.144-2.366-1.578-2.221-3.119
		c0.135-1.417,1.227-2.468,2.729-2.551c0.876-0.049,1.757-0.011,2.636-0.011C126.938,82.89,126.938,82.89,126.938,82.892z"/>
	<path fill="#919191" d="M92.207,73.583c-0.928,0-1.857,0.076-2.775-0.018c-1.559-0.156-2.57-1.335-2.58-2.849
		c-0.004-1.46,0.938-2.735,2.408-2.839c1.938-0.137,3.901-0.142,5.842-0.003c1.529,0.11,2.485,1.436,2.428,2.963
		c-0.055,1.448-1.049,2.57-2.545,2.727C94.066,73.659,93.134,73.581,92.207,73.583z"/>
	<path fill="#919191" d="M51.3,41.628c-5.977,0-11.954,0.005-17.932-0.006c-0.682,0-1.381-0.01-2.042-0.155
		c-1.357-0.298-2.208-1.523-2.147-2.94c0.059-1.345,0.969-2.432,2.282-2.684c0.382-0.073,0.781-0.093,1.17-0.093
		c12.444-0.006,24.89-0.006,37.332,0c0.391,0,0.788,0.012,1.172,0.078c1.382,0.242,2.341,1.373,2.374,2.769
		c0.033,1.396-0.859,2.597-2.231,2.884c-0.617,0.127-1.265,0.14-1.898,0.14C63.353,41.632,57.327,41.628,51.3,41.628z"/>
	<path fill="#919191" d="M102.539,38.657c0.007,1.624-1.241,2.901-2.855,2.925c-1.654,0.024-3.033-1.346-2.994-2.971
		c0.037-1.592,1.352-2.854,2.965-2.842C101.283,35.78,102.534,37.03,102.539,38.657z"/>
	<path fill="#919191" d="M130.206,38.655c0.008,1.624-1.237,2.9-2.853,2.925c-1.654,0.028-3.019-1.328-2.981-2.968
		c0.032-1.595,1.341-2.856,2.95-2.844C128.948,35.778,130.201,37.03,130.206,38.655z"/>
	<path fill="#919191" d="M116.371,38.63c0.02,1.631-1.21,2.913-2.827,2.95c-1.659,0.039-3.041-1.312-3.022-2.943
		c0.021-1.589,1.33-2.867,2.938-2.869C115.094,35.768,116.354,37.006,116.371,38.63z"/>
</g>
</svg>
