<?xml version="1.0" encoding="utf-8"?>
<!-- Generator: Adobe Illustrator 16.0.3, SVG Export Plug-In . SVG Version: 6.00 Build 0)  -->
<!DOCTYPE svg PUBLIC "-//W3C//DTD SVG 1.1//EN" "http://www.w3.org/Graphics/SVG/1.1/DTD/svg11.dtd">
<svg version="1.1" id="Capa_1" xmlns="http://www.w3.org/2000/svg" xmlns:xlink="http://www.w3.org/1999/xlink" x="0px" y="0px"
	 width="170px" height="185px" viewBox="0 0 170 185" enable-background="new 0 0 170 185" xml:space="preserve">
<g>
	<path fill="#490D3D" d="M45.132,20.781c26.797,0,53.591,0,80.388,0c0.617,0.502,1.289,0.948,1.846,1.511
		c8.986,9.115,17.947,18.25,26.945,27.35c1.006,1.017,1.451,2.099,1.446,3.549c-0.022,36.843-0.024,73.688,0.007,110.532
		c0.002,1.764-0.51,3.045-2.037,3.875c-36.197,0-72.396,0-108.595,0c-1.746-0.679-2.27-2.033-2.267-3.846
		c0.023-23.979,0.016-47.958,0.016-71.936c0-0.597,0-1.198,0-1.89c-0.721,0-1.231,0-1.741,0c-6.156,0-12.312,0.014-18.465-0.003
		c-5.824-0.012-9.409-3.65-9.414-9.555c-0.008-10.792-0.005-21.589,0-32.384c0.005-6.051,3.605-9.684,9.598-9.688
		c6.153-0.011,12.309-0.003,18.464-0.003c0.495,0,0.988,0,1.557,0c0-4.743,0.03-9.274-0.016-13.807
		C42.849,22.709,43.463,21.438,45.132,20.781z M149.977,161.799c0-35.584,0-71.054,0-106.597c-0.627,0-1.141,0-1.656,0
		c-7.519,0-15.039,0.003-22.561-0.002c-2.945,0-3.878-0.952-3.881-3.956c-0.002-7.694-0.002-15.388-0.002-23.084
		c0-0.508,0-1.015,0-1.544c-24.529,0-48.893,0-73.238,0c0,3.939,0,7.779,0,11.679c7.536,0,14.961-0.005,22.386,0
		c6.103,0.005,9.658,3.597,9.661,9.764c0.005,10.706,0.002,21.41-0.002,32.116c0,0.62,0,1.245-0.062,1.862
		c-0.424,4.297-4.003,7.736-8.161,7.861c-1.789,0.056-3.002-0.91-3.181-2.533c-0.168-1.53,0.769-2.709,2.468-3.109
		c2.743-0.647,3.298-1.352,3.298-4.229c0-10.609,0-21.217,0-31.827c0-3.141-1.031-4.169-4.174-4.169
		c-15.935-0.002-31.871-0.002-47.807,0c-3.127,0-4.161,1.042-4.161,4.19c-0.002,10.61-0.002,21.221,0,31.828
		c0,3.111,0.996,4.137,4.043,4.137c8.463,0.002,16.923-0.003,25.384,0.007c0.607,0,1.229,0.032,1.814,0.174
		c1.444,0.349,2.219,1.471,2.115,2.937c-0.1,1.364-1.016,2.351-2.415,2.574c-0.401,0.067-0.809,0.096-1.244,0.145
		c0,23.961,0,47.833,0,71.775C82.411,161.799,116.145,161.799,149.977,161.799z M145.253,49.388
		c-5.827-5.936-11.833-12.055-17.657-17.986c0,5.725,0,11.817,0,17.986C133.701,49.388,139.729,49.388,145.253,49.388z"/>
	<path fill="#8A9B18" d="M107.766,112.854c-8.974,0-17.945,0-26.917-0.004c-0.422,0-0.847,0.02-1.265-0.014
		c-1.582-0.121-2.711-1.205-2.808-2.684c-0.096-1.432,0.956-2.698,2.507-2.967c0.46-0.078,0.935-0.068,1.403-0.069
		c18.083-0.003,36.169-0.003,54.253,0.003c0.605,0.005,1.229,0.042,1.808,0.197c1.342,0.359,2.121,1.529,2.03,2.886
		c-0.086,1.28-0.981,2.329-2.271,2.563c-0.551,0.099-1.125,0.08-1.688,0.082C125.805,112.854,116.784,112.854,107.766,112.854z"/>
	<path fill="#8A9B18" d="M90.807,147.254c-8.973,0-17.943,0.002-26.916,0c-0.515,0-1.039,0.021-1.546-0.05
		c-1.408-0.204-2.431-1.323-2.505-2.685c-0.072-1.326,0.878-2.569,2.265-2.881c0.496-0.111,1.023-0.121,1.536-0.121
		c18.133-0.007,36.265-0.007,54.396,0.002c0.561,0,1.134,0.02,1.672,0.149c1.337,0.325,2.191,1.485,2.15,2.81
		c-0.041,1.319-0.977,2.439-2.312,2.691c-0.502,0.096-1.026,0.081-1.542,0.081C108.939,147.256,99.874,147.254,90.807,147.254z"/>
	<path fill="#F6C911" d="M99.29,124.324c-6.435,0-12.868,0.017-19.299-0.008c-2.312-0.008-3.775-1.742-3.004-3.662
		c0.299-0.736,1.077-1.383,1.787-1.809c0.509-0.308,1.271-0.244,1.923-0.244c12.393-0.015,24.788-0.012,37.184-0.012
		c2.643,0,4.027,1.031,3.979,2.953c-0.049,1.87-1.348,2.78-3.979,2.78C111.686,124.326,105.484,124.326,99.29,124.324z"/>
	<path fill="#BC1550" d="M99.376,135.797c-6.245,0-12.487,0-18.736-0.005c-0.515,0-1.039,0.017-1.544-0.072
		c-1.3-0.227-2.283-1.385-2.331-2.684c-0.045-1.224,0.802-2.429,2.039-2.763c0.579-0.156,1.202-0.205,1.805-0.205
		c12.491-0.01,24.979-0.01,37.47,0c0.603,0,1.223,0.053,1.805,0.214c1.245,0.349,2.027,1.515,1.974,2.791
		c-0.058,1.276-0.946,2.377-2.203,2.625c-0.549,0.106-1.122,0.094-1.682,0.094C111.771,135.8,105.574,135.797,99.376,135.797z"/>
	<path fill="#BC1550" d="M41.172,61.568c0,2.867,0.083,5.732-0.016,8.592c-0.161,4.521-3.619,8.031-7.991,8.25
		c-4.39,0.222-8.134-2.917-8.796-7.371c-0.321-2.149,0.526-3.604,2.283-3.931c1.648-0.305,2.85,0.756,3.271,2.887
		c0.358,1.803,1.543,2.831,3.077,2.674c1.56-0.161,2.531-1.344,2.54-3.222c0.021-5.108,0.009-10.214,0.009-15.32
		c0-0.382-0.011-0.764,0.002-1.146c0.077-1.933,1.276-3.258,2.896-3.205c1.594,0.051,2.71,1.314,2.734,3.205
		c0.033,2.863,0.009,5.726,0.009,8.588C41.182,61.568,41.18,61.568,41.172,61.568z"/>
	<path fill="#E87F13" d="M64.889,112.99c2.038,2.06,4.059,3.973,5.921,6.044c0.64,0.711,1.231,1.796,1.229,2.713
		c-0.007,2.157-2.45,3.271-4.25,2.084c-0.312-0.206-0.604-0.456-0.865-0.724c-2.529-2.561-5.063-5.113-7.568-7.696
		c-1.632-1.685-1.632-3.168-0.003-4.851c2.571-2.651,5.162-5.283,7.769-7.898c1.476-1.48,3.148-1.6,4.353-0.369
		c1.183,1.202,1.052,2.945-0.387,4.428C69.077,108.789,67.037,110.823,64.889,112.99z"/>
	<path fill="#E87F13" d="M133.275,141.536c-1.998-2.026-3.854-3.904-5.7-5.798c-0.394-0.406-0.789-0.827-1.091-1.305
		c-0.689-1.106-0.521-2.506,0.355-3.425c0.854-0.897,2.262-1.112,3.355-0.466c0.397,0.239,0.766,0.555,1.096,0.887
		c2.497,2.522,4.994,5.047,7.471,7.594c1.678,1.724,1.68,3.227,0.004,4.951c-2.606,2.68-5.24,5.334-7.863,8
		c-0.858,0.873-1.976,1.44-3.043,0.859c-0.81-0.436-1.729-1.412-1.822-2.239c-0.102-0.907,0.475-2.112,1.127-2.848
		C129.057,145.633,131.132,143.689,133.275,141.536z"/>
	<path fill="#8A9B18" d="M60.659,84.15c1.597-0.021,2.796,1.127,2.833,2.72c0.043,1.618-1.248,2.975-2.804,2.957
		c-1.487-0.015-2.792-1.344-2.804-2.853C57.871,85.433,59.113,84.17,60.659,84.15z"/>
	<path fill="#BC1550" d="M66.9,70.563c-0.558,1.405-0.914,2.943-1.72,4.185c-1.456,2.249-3.696,3.501-6.383,3.626
		c-2.531,0.12-5.092,0.19-7.608-0.058c-4.518-0.446-7.593-3.956-7.777-8.6c1.91,0,3.819,0,5.736,0
		c0.759,2.388,1.43,2.869,4.03,2.869c1.56,0,3.122,0.01,4.685-0.003c1.858-0.019,3.175-1.273,3.149-2.98
		c-0.022-1.669-1.323-2.866-3.142-2.9c-2.323-0.043-4.673,0.101-6.965-0.19c-3.647-0.461-6.073-2.655-7.114-6.161
		c-1.026-3.44-0.112-6.468,2.476-8.949c1.618-1.549,3.616-2.289,5.83-2.319c2.385-0.032,4.785-0.08,7.154,0.14
		c3.813,0.35,6.925,3.464,7.494,7.218c0.027,0.177,0.102,0.347,0.155,0.521c0,0.307,0,0.611,0,0.918c-1.95,0-3.896,0-5.822,0
		c-0.46-2.157-1.418-2.938-3.525-2.94c-1.682-0.002-3.365-0.008-5.047,0c-1.936,0.014-3.264,1.24-3.245,2.976
		c0.022,1.698,1.336,2.892,3.224,2.905c1.773,0.011,3.549-0.014,5.323,0.005c3.026,0.032,5.512,1.178,7.366,3.616
		c0.964,1.271,1.396,2.756,1.728,4.284C66.9,69.337,66.9,69.952,66.9,70.563z"/>
</g>
</svg>
