<?xml version="1.0" encoding="utf-8"?>
<!-- Generator: Adobe Illustrator 16.0.3, SVG Export Plug-In . SVG Version: 6.00 Build 0)  -->
<!DOCTYPE svg PUBLIC "-//W3C//DTD SVG 1.1//EN" "http://www.w3.org/Graphics/SVG/1.1/DTD/svg11.dtd">
<svg version="1.1" id="Capa_1" xmlns="http://www.w3.org/2000/svg" xmlns:xlink="http://www.w3.org/1999/xlink" x="0px" y="0px"
	 width="300px" height="480px" viewBox="0 0 300 480" enable-background="new 0 0 300 480" xml:space="preserve">
<g>
	<g>
		<path fill="#333333" d="M185.722,199.602c2.296-3.066,4.502-6.005,6.839-9.124c9.454,5.711,19.037,11.501,28.954,17.493
			c-0.104-1.213-0.135-2.043-0.254-2.864c-2.788-18.926-5.597-37.85-8.374-56.777c-0.167-1.142-0.28-2.33-0.156-3.467
			c0.419-3.805,4.134-6.022,7.695-4.645c0.843,0.327,1.665,0.739,2.438,1.209c12.822,7.755,25.634,15.526,38.448,23.299
			c2.924,1.772,4.034,4.23,3.168,6.959c-1.151,3.625-4.972,5.207-8.283,3.344c-2.559-1.437-5.048-3.002-7.563-4.519
			c-6.976-4.212-13.952-8.43-20.93-12.646c-0.458-0.276-0.917-0.554-1.694-1.023c0.413,2.884,0.77,5.412,1.14,7.939
			c2.498,17.125,5.008,34.252,7.495,51.379c0.165,1.146,0.324,2.325,0.239,3.47c-0.337,4.646-4.519,6.882-8.514,4.501
			c-8.434-5.031-16.824-10.141-25.234-15.218c-4.725-2.853-9.448-5.708-14.171-8.561
			C186.504,200.075,186.042,199.795,185.722,199.602z"/>
		<path fill="#333333" d="M103.205,191.543c2.633,4.443,5.125,8.652,7.748,13.076c-0.514,0.269-1.138,0.597-1.761,0.923
			c-15.13,7.935-30.262,15.87-45.392,23.804c-0.232,0.122-0.465,0.248-0.7,0.361c-3.006,1.491-6.042,1.95-8.931-0.156
			c-2.95-2.156-3.202-5.247-2.536-8.515c1.365-6.691,2.768-13.378,4.168-20.064c3.81-18.191,7.626-36.383,11.434-54.579
			c0.199-0.956,0.325-1.931,0.568-3.413c-0.956,0.501-1.548,0.812-2.142,1.123c-12.22,6.409-24.437,12.823-36.669,19.216
			c-1.039,0.544-2.126,1.073-3.255,1.351c-3.823,0.951-6.637-0.623-8.454-4.59c-1.4-3.066-0.457-6.367,2.481-8.491
			c0.844-0.612,1.74-1.181,2.663-1.667c17.269-9.091,34.545-18.172,51.828-27.236c2.91-1.526,5.848-1.948,8.714,0.161
			c2.886,2.122,3.616,5.005,2.913,8.373c-3.869,18.515-7.747,37.033-11.619,55.55c-1.529,7.323-3.055,14.652-4.668,22.4
			C81.002,203.187,92.11,197.361,103.205,191.543z"/>
		<path fill="#333333" d="M99.554,178.981c0-10.7-0.025-21.404,0.025-32.1c0.008-1.749,0.118-3.558,0.57-5.23
			c1.103-4.089,4.245-6.25,8.486-6.128c4.144,0.117,7.227,2.584,8.099,6.661c0.344,1.627,0.487,3.322,0.495,4.986
			c0.093,20.868,0.029,41.736,0.24,62.599c0.192,19.504,14.948,29.957,32.507,28.756c2.712-0.185,5.452-0.579,8.095-1.225
			c12.223-3.016,19.697-11.878,20.699-24.441c0.238-2.99,0.361-5.998,0.369-8.997c0.029-19.273,0.006-38.551,0.02-57.825
			c0.006-5.759,2.031-8.854,6.578-10.205c4.66-1.38,9.283,1.103,10.561,5.81c0.387,1.426,0.525,2.961,0.529,4.45
			c0.031,20.863,0.174,41.73-0.025,62.602c-0.162,16.933-6.135,31.109-21.098,40.333c-15.33,9.451-40.937,11.511-57.475-1.779
			c-12.013-9.65-18.628-21.89-18.556-37.506c0.05-10.254,0.008-20.506,0.008-30.761C99.638,178.981,99.596,178.981,99.554,178.981z"
			/>
		<path fill="#333333" d="M178.008,339.075c7.301-6.73,14.193-13.063,21.061-19.434c2.076-1.923,4.193-3.632,6.826-3.214
			c3.447,0.551,6.125,3.665,6.92,8.15c0.818,4.589-0.357,8.329-3.107,10.932c-6.83,6.461-13.74,12.77-20.633,19.116
			c-4.199,3.872-8.406,7.719-12.637,11.514c-1.023,0.922-2.121,1.75-3.262,2.353c-5.541,2.927-10.375-1.604-10.404-9.753
			c-0.047-11.298-0.053-22.602-0.049-33.897c0.006-23.669,0.018-47.334,0.045-70.999c0.008-8.02,3.865-12.377,9.537-10.848
			c3.145,0.849,5.324,4.299,5.656,9.01c0.07,1.06,0.047,2.134,0.047,3.201c0.004,26.777,0,53.559,0,80.345
			C178.008,336.501,178.008,337.449,178.008,339.075z"/>
		<path fill="#333333" d="M124,360.5c-8.896-8.201-17.292-15.918-25.663-23.681c-2.528-2.343-5.108-4.426-8.315-3.916
			c-4.201,0.67-7.466,4.466-8.434,9.93c-0.995,5.591,0.436,10.15,3.789,13.319c8.321,7.876,16.741,15.562,25.138,23.295
			c5.119,4.717,10.244,9.404,15.399,14.029c1.247,1.122,2.583,2.131,3.973,2.865c6.753,3.567,12.64-1.956,12.678-11.884
			c0.056-13.767,0.063-27.539,0.06-41.302c-0.008-28.839-0.021-57.677-0.057-86.512c-0.006-9.771-4.708-15.08-11.618-13.217
			c-3.834,1.033-6.488,5.235-6.89,10.978c-0.086,1.292-0.06,2.599-0.06,3.9c-0.004,32.627,0,65.262,0,97.897
			C124,357.361,124,358.518,124,360.5z"/>
		<path fill="#333333" d="M142.777,167.315c-0.088,3.541-2.625,5.982-6.111,5.881c-3.322-0.091-6.14-2.894-6.136-6.085
			c0.004-3.41,3.141-6.493,6.472-6.376C140.429,160.861,142.865,163.641,142.777,167.315z"/>
		<path fill="#333333" d="M162.371,160.734c3.236-0.021,6.266,2.991,6.316,6.274c0.049,3.23-3.002,6.204-6.352,6.192
			c-3.402-0.017-5.961-2.601-5.996-6.07C156.305,163.607,158.988,160.76,162.371,160.734z"/>
		<path fill="#333333" d="M158,214.423c0,5.894-4.778,10.672-10.673,10.672l0,0c-5.894,0-10.672-4.778-10.672-10.672v-10.75
			c0-5.894,4.779-10.672,10.672-10.672l0,0c5.895,0,10.673,4.778,10.673,10.672V214.423z"/>
	</g>
</g>
<path fill="#333333" d="M162.991,91.021c-14.845,18.069-29.683,36.148-44.524,54.223c-1.984,2.412-4.271,4.475-7.447,5.006
	c-5.129,0.859-8.674-1.667-11.234-5.812c-10.635-17.216-12.129-35.384-4.846-54.1c14.512-37.287,58.617-48.084,88.977-24.293
	c20.461,16.033,27.427,44.063,17.907,68.186c-1.576,3.994-3.741,7.858-6.21,11.372c-2.555,3.63-6.947,4.297-10.801,2.434
	c-3.929-1.901-5.868-5.383-4.885-9.691c0.54-2.385,1.669-4.671,2.767-6.891c6.678-13.491,6.279-26.83-0.863-39.977
	c-2.398-4.416-5.716-8.092-10.159-10.977C168.698,84.106,165.837,87.559,162.991,91.021z M143.594,72.179
	c-29.617,4.733-39.674,34.014-32.467,53.458c0.68,1.847,1.648,3.595,2.688,5.833c15.773-19.161,31.213-37.919,46.867-56.941
	C154.954,71.609,149.344,71.261,143.594,72.179z"/>
</svg>
