<?xml version="1.0" encoding="utf-8"?>
<!-- Generator: Adobe Illustrator 16.0.3, SVG Export Plug-In . SVG Version: 6.00 Build 0)  -->
<!DOCTYPE svg PUBLIC "-//W3C//DTD SVG 1.1//EN" "http://www.w3.org/Graphics/SVG/1.1/DTD/svg11.dtd">
<svg version="1.1" xmlns="http://www.w3.org/2000/svg" xmlns:xlink="http://www.w3.org/1999/xlink" x="0px" y="0px" width="390px"
	 height="600px" viewBox="0 0 390 600" enable-background="new 0 0 390 600" xml:space="preserve">
<g id="Capa_1">
	<image overflow="visible" width="390" height="600" xlink:href="puzku.png"  transform="matrix(0.9999 0 0 0.9999 0 0)">
	</image>
	<rect x="179.667" fill="#092300" width="210.284" height="599.925"/>
	<rect x="-355.667" y="5.4" fill="#779967" width="210.284" height="599.925"/>
	
		<rect x="11" y="0" transform="matrix(0.9999 -0.0106 0.0106 0.9999 -3.1617 1.0391)" fill="#FFFFFF" width="171.667" height="599.925"/>
	<rect fill="#779967" width="164.667" height="599.925"/>
	<rect x="-261.333" y="0.037" fill="#092300" width="171.667" height="599.925"/>
	<g>
	</g>
	<rect x="80.5" y="258.25" fill-rule="evenodd" clip-rule="evenodd" fill="#092300" width="8.417" height="72.75"/>
	<g>
		<path fill-rule="evenodd" clip-rule="evenodd" fill="#092300" d="M-109.085,334.736c0-0.595,0-1.193,0-1.79
			c0.121-0.573,0.239-1.144,0.362-1.717c0.826-3.834,2.549-6.976,5.728-9.179c2.105,7.569,4.357,9.595,9.857,9.046
			c3.672-0.367,5.813-2.336,6.088-5.597c-3.202-1.266-3.202-1.266-3.503-3.286c1.213,0.284,2.397,0.564,4.114,0.97
			c-0.948-2.469-1.71-4.449-2.631-6.848c-0.444,0.951-0.625,1.372-0.833,1.78c-0.864,1.691-2.255,2.05-3.718,0.965
			c-1.418-1.053-1.915-3.372-1.138-5.313c0.707-1.766,2.034-2.446,3.923-1.902c2.589,0.745,4.25,2.606,5.051,5.356
			c0.54,1.855,0.973,3.751,1.46,5.651c0.41,0.022,0.734,0.054,1.056,0.053c0.207-0.002,0.413-0.052,0.346-0.044
			c-0.305-6.74-0.606-13.378-0.906-20.014c2.078,0,4.155,0,6.232,0c0.102,6.271-0.319,12.495-1.333,18.675
			c-0.066,0.405,0.36,0.904,0.558,1.361c0.389-0.324,0.999-0.566,1.127-0.985c0.434-1.406,0.653-2.888,1.033-4.314
			c0.678-2.541,2.078-4.423,4.368-5.449c3.042-1.364,5.493,0.637,5.073,4.175c-0.202,1.692-1.033,2.925-2.594,3.291
			c-1.52,0.356-2.297-0.72-2.819-2.099c-0.077-0.203-0.21-0.381-0.631-1.129c-0.897,2.378-1.644,4.358-2.548,6.752
			c1.805-0.402,3.001-0.669,4.305-0.961c-0.121,2.966-2.466,2.482-3.796,3.386c0.516,3.411,2.445,5.187,6.066,5.533
			c2.158,0.207,4.265-0.008,6.161-1.297c2.615-1.775,3.098-4.799,3.617-7.884c0.421,0.301,0.698,0.48,0.956,0.688
			c2.763,2.237,4.293,5.311,5.057,8.904c0,1.431,0,2.863,0,4.294c-0.115,0.395-0.252,0.782-0.343,1.181
			c-0.963,4.25-3.575,6.79-7.516,7.299c-7.377,0.95-15.427-5.841-16.425-13.876c-0.153-1.238-0.133-2.504-0.341-3.727
			c-0.088-0.515-0.556-0.954-0.85-1.428c-0.161,0.101-0.321,0.203-0.481,0.305c0,0.583-0.026,1.17,0.004,1.753
			c0.216,4.229,1.735,7.939,3.819,11.429c3.444,5.77,3.493,11.521,0.159,17.427c-2.11,3.739-3.946,7.664-5.905,11.507
			c-0.109,0-0.218,0-0.327,0c-1.866-4.021-3.579-8.139-5.633-12.041c-3.182-6.041-3.216-11.765,0.533-17.542
			c2.412-3.716,3.649-7.947,3.525-12.748c-0.53,0.236-1.082,0.577-1.211,1.055c-0.291,1.076-0.392,2.216-0.538,3.335
			c-1.002,7.641-5.313,12.052-11.826,14.094c-5.615,1.76-10.183-0.573-11.95-5.849C-108.656,336.938-108.83,335.821-109.085,334.736
			z"/>
	</g>
	<g>
		<path fill="#FFFFFF" d="M227.673,91.813h-16.19v-1.719c2.177-0.275,3.546-0.733,4.107-1.375c0.562-0.641,0.843-2.142,0.843-4.503
			v-4.021h-17.909v4.021c0,2.361,0.28,3.862,0.842,4.503c0.562,0.642,1.942,1.1,4.143,1.375v1.719h-16.225v-1.719
			c2.292-0.275,3.689-0.733,4.194-1.375c0.503-0.641,0.756-2.406,0.756-5.293v-4.641c0.229-2.864,0.527-5.5,0.894-7.906
			c0.894-5.797,2.028-9.957,3.403-12.478c2.749-5.019,6.508-9.201,11.274-12.546c4.491,3.483,8.031,7.665,10.621,12.546
			c1.695,3.186,3.128,10.118,4.297,20.796v4.228c0,2.888,0.252,4.652,0.756,5.293c0.504,0.642,1.902,1.1,4.194,1.375V91.813z
			 M216.433,75.829c-0.138-7.333-0.734-12.558-1.788-15.674c-1.649-4.95-3.93-9.086-6.84-12.409
			c-1.948,1.879-3.472,3.781-4.572,5.706c-0.894,1.536-1.855,3.77-2.887,6.703c-1.353,3.804-1.96,9.029-1.822,15.674H216.433z
			 M216.433,78.132v-1.203h-17.909v1.203H216.433z"/>
	</g>
	<g>
		<path fill="#FFFFFF" d="M318.52,92.006H302.33v-1.719c2.177-0.275,3.546-0.733,4.107-1.375c0.562-0.641,0.842-2.142,0.842-4.503
			v-4.021h-17.908v4.021c0,2.361,0.28,3.862,0.842,4.503c0.562,0.642,1.942,1.1,4.142,1.375v1.719h-16.224v-1.719
			c2.291-0.275,3.688-0.733,4.193-1.375c0.504-0.641,0.756-2.406,0.756-5.293v-4.641c0.229-2.864,0.527-5.5,0.894-7.906
			c0.895-5.797,2.028-9.957,3.403-12.478c2.75-5.019,6.508-9.201,11.274-12.546c4.491,3.483,8.032,7.665,10.622,12.546
			c1.695,3.186,3.128,10.118,4.297,20.796v4.228c0,2.888,0.252,4.652,0.756,5.293c0.504,0.642,1.901,1.1,4.193,1.375V92.006z
			 M307.279,76.022c-0.138-7.333-0.733-12.558-1.787-15.674c-1.65-4.95-3.931-9.086-6.841-12.409
			c-1.948,1.879-3.472,3.781-4.571,5.706c-0.894,1.536-1.856,3.77-2.888,6.703c-1.353,3.804-1.959,9.029-1.821,15.674H307.279z
			 M307.279,78.326v-1.203h-17.908v1.203H307.279z"/>
		<path fill="#FFFFFF" d="M345.056,47.32c2.017,0.711,3.22,1.066,3.609,1.066c1.191,0,2.051-0.722,2.578-2.166h1.237l0.447,14.23
			h-1.271c-1.192-3.346-2.384-5.786-3.575-7.322c-2.178-2.795-5.064-4.205-8.662-4.228c-4.95-0.023-8.605,2.429-10.966,7.356
			c-1.787,3.712-2.681,8.318-2.681,13.818c0,5.156,1.054,9.545,3.162,13.166c2.566,4.446,6.244,6.668,11.034,6.668
			c0.733,0,1.541-0.074,2.424-0.224c0.882-0.148,1.747-0.395,2.595-0.739c1.329-0.55,2.16-1.008,2.492-1.375
			c0.332-0.366,0.498-0.928,0.498-1.685V75.095c0-2.589-0.304-4.199-0.91-4.83c-0.607-0.63-1.954-1.025-4.039-1.186v-1.272h14.368
			v1.272c-1.353,0.069-2.28,0.344-2.784,0.825c-0.779,0.733-1.169,2.177-1.169,4.331v13.302c0,1.192-2.086,2.395-6.256,3.609
			c-3.553,1.031-6.188,1.547-7.906,1.547c-5.5,0-10.141-1.925-13.921-5.775c-4.148-4.239-6.234-9.945-6.257-17.118
			c0-6.256,1.661-11.641,4.984-16.156c3.644-4.95,8.479-7.424,14.506-7.424C340.816,46.221,342.971,46.587,345.056,47.32z"/>
		<path fill="#FFFFFF" d="M360.455,90.528c2.429-0.252,3.947-0.71,4.555-1.375c0.607-0.664,0.911-2.246,0.911-4.744V47.458
			c0.71,1.26,1.386,2.36,2.028,3.3c1.558,2.223,2.795,3.415,3.712,3.575V84.41c0,2.705,0.378,4.366,1.135,4.984
			c0.71,0.527,2.153,0.905,4.331,1.134v1.203h-16.672V90.528z M367.914,41.786l-3.952-3.953l3.952-3.953l3.953,3.953L367.914,41.786
			z"/>
	</g>
	<g>
		<path fill="#FFFFFF" d="M324.205,124.401c1.066-0.122,1.734-0.434,2.003-0.937c0.183-0.33,0.273-1.106,0.273-2.329v-13.854
			c0-1.049-0.122-1.748-0.364-2.094c-0.286-0.408-0.924-0.664-1.912-0.768v-0.599h7.024c2.012,0,3.634,0.442,4.865,1.327
			c1.405,1.006,2.107,2.472,2.107,4.397c0,2.081-0.655,3.655-1.965,4.722c-1.205,0.98-2.874,1.474-5.008,1.483
			c-0.478,0-0.846-0.004-1.105-0.013l-0.989-0.039v5.815c0,1.206,0.149,1.962,0.449,2.27c0.299,0.308,0.99,0.514,2.074,0.618v0.572
			h-7.453V124.401z M330.332,105.018c-0.494,0-0.817,0.061-0.97,0.182c-0.151,0.122-0.228,0.416-0.228,0.883v8.327
			c0.261,0.026,0.572,0.057,0.937,0.091c0.096,0,0.238,0.004,0.43,0.013c1.223,0,2.186-0.208,2.888-0.624
			c1.275-0.753,1.912-2.174,1.912-4.261C335.301,106.581,333.645,105.044,330.332,105.018z"/>
		<path fill="#FFFFFF" d="M352.615,107.203c0-1.153-0.147-1.899-0.442-2.237c-0.269-0.313-0.906-0.529-1.912-0.65v-0.572h7.401
			v0.572c-1.109,0.139-1.799,0.434-2.068,0.884c-0.182,0.321-0.272,1.115-0.272,2.381v1.99c-0.156,1.466-0.33,2.792-0.521,3.98
			c-0.46,2.854-0.959,4.788-1.496,5.802c-0.694,1.318-1.392,2.392-2.095,3.22c-0.702,0.828-1.644,1.697-2.822,2.608
			c-1.249-0.867-2.246-1.719-2.992-2.556s-1.483-1.927-2.212-3.271c-1.214-2.229-1.886-5.42-2.016-9.575v-2.198
			c0-1.266-0.092-2.06-0.273-2.381c-0.27-0.451-0.959-0.746-2.068-0.884v-0.572h7.401v0.572c-1.006,0.122-1.644,0.338-1.912,0.65
			c-0.295,0.338-0.442,1.084-0.442,2.237v3.838c-0.034,3.313,0.256,5.841,0.872,7.584c0.494,1.405,0.963,2.489,1.404,3.252
			c0.538,0.919,1.293,1.847,2.264,2.784c1.423-1.63,2.532-3.643,3.33-6.036c0.503-1.5,0.794-4.042,0.872-7.623V107.203z"/>
		<path fill="#FFFFFF" d="M357.272,124.401c1.093-0.069,1.8-0.291,2.121-0.664c0.294-0.355,0.441-1.097,0.441-2.225v-14.231
			c0-1.162-0.16-1.917-0.48-2.264c-0.321-0.347-1.015-0.546-2.082-0.598v-0.599h7.467c0.989,0,1.791,0.104,2.407,0.313
			c0.459,0.156,1.045,0.464,1.756,0.923c0.746,0.486,1.214,0.868,1.405,1.145c0.32,0.451,0.481,1.136,0.481,2.055
			c0,1.44-1.137,2.78-3.408,4.02c1.015,0.772,1.882,1.526,2.602,2.263c1.734,1.761,2.605,3.278,2.614,4.553
			c0.009,2.498-0.954,4.215-2.888,5.151c-1.006,0.486-2.255,0.729-3.746,0.729h-8.69V124.401z M366.262,111.213
			c1.223-0.892,1.834-1.835,1.834-2.832c0-0.874-0.161-1.498-0.483-1.87c-0.2-0.233-0.692-0.549-1.477-0.948
			c-0.444-0.226-0.745-0.359-0.902-0.403c-0.322-0.095-0.814-0.143-1.477-0.143c-0.54,0-0.88,0.057-1.02,0.169
			c-0.14,0.113-0.209,0.424-0.209,0.935v6.949L366.262,111.213z M368.158,122.085c0.599-0.408,1.007-0.759,1.225-1.054
			c0.365-0.503,0.547-1.153,0.547-1.952c0-0.78-0.634-1.834-1.902-3.161c-0.999-1.049-1.902-1.825-2.71-2.329l-2.789,1.21v6.921
			c0,0.642,0.222,1.041,0.664,1.197c0.2,0.078,0.713,0.117,1.538,0.117C366.086,123.035,367.229,122.718,368.158,122.085z"/>
	</g>
	<g>
		<path fill="#FFFFFF" d="M225.985,521.597c2.335-0.23,3.807-0.679,4.413-1.344c0.606-0.666,0.909-2.187,0.909-4.564v-29.115
			c0-2.288-0.313-3.796-0.936-4.523c-0.679-0.781-2.141-1.225-4.387-1.331v-1.225h16.154v1.225c-2.212,0.106-3.651,0.51-4.32,1.211
			c-0.668,0.701-1.003,2.249-1.003,4.644v29.115c0,2.52,0.33,4.09,0.99,4.711c0.588,0.55,2.032,0.949,4.333,1.197v1.171h-16.154
			V521.597z"/>
		<path fill="#FFFFFF" d="M243.177,521.597c2.194-0.248,3.577-0.878,4.147-1.89c0.375-0.692,0.563-2.289,0.563-4.79v-28.344
			c0-2.164-0.25-3.593-0.749-4.284c-0.607-0.834-1.928-1.357-3.961-1.57v-1.225h15.103c3.108,0,5.728,0.479,7.858,1.438
			c3.96,1.792,5.949,5.128,5.967,10.007c0,6.085-3.282,9.731-9.847,10.938c1.136,1.863,2.244,3.619,3.327,5.27
			c2.59,3.922,4.825,6.946,6.706,9.075c3.087,3.513,7.931,7.788,14.531,12.827c0.585,0.515,1.251,0.896,1.996,1.145
			c0.833,0.284,1.295,0.453,1.384,0.506c0.266,0.177,0.745,0.275,1.437,0.293c1.029,0.035,1.614,0.062,1.757,0.08v1.171h-8.569
			c-2.2-1.544-4.25-3.052-6.147-4.524c-4.578-3.513-8.064-6.547-10.459-9.102c-3.283-3.495-7.204-8.818-11.764-15.968l-3.061,0.159
			v12.881c0,2.431,0.304,3.975,0.91,4.631c0.553,0.604,1.899,1.029,4.04,1.277v1.171h-15.169V521.597z M261.823,498.922
			c2.88-1.401,4.329-4.089,4.347-8.063c0-3.779-1.298-6.36-3.894-7.744c-1.369-0.728-3.209-1.101-5.521-1.118
			c-1.352-0.018-2.178,0.054-2.48,0.213c-0.587,0.249-0.88,0.932-0.88,2.049v16.128
			C257.343,500.227,260.151,499.738,261.823,498.922z"/>
		<path fill="#FFFFFF" d="M275.484,521.597c2.335-0.23,3.807-0.679,4.413-1.344c0.606-0.666,0.909-2.187,0.909-4.564v-29.115
			c0-2.288-0.313-3.796-0.936-4.523c-0.679-0.781-2.141-1.225-4.387-1.331v-1.225h16.154v1.225c-2.212,0.106-3.651,0.51-4.32,1.211
			c-0.668,0.701-1.003,2.249-1.003,4.644v29.115c0,2.52,0.33,4.09,0.99,4.711c0.588,0.55,2.032,0.949,4.333,1.197v1.171h-16.154
			V521.597z"/>
		<path fill="#FFFFFF" d="M320.966,512.602c0.018,3.406-1.286,6.112-3.912,8.117c-2.395,1.827-5.34,2.741-8.835,2.741
			c-3.407,0-6.299-0.879-8.676-2.635c-2.626-1.952-3.948-4.568-3.966-7.852c-0.018-2.714,0.834-5.109,2.555-7.186
			c0.976-1.171,2.937-2.776,5.882-4.816c-2.768-2.2-4.676-3.992-5.722-5.376c-1.562-2.059-2.352-4.32-2.369-6.786
			c-0.018-3.158,1.331-5.687,4.046-7.585c2.412-1.668,5.26-2.502,8.542-2.502c2.963,0,5.51,0.781,7.639,2.342
			c2.359,1.739,3.548,4.037,3.566,6.893c0,0.959-0.914,1.935-2.741,2.928c-2.804,1.509-4.215,2.271-4.231,2.289l-0.054-0.054
			c1.579-1.969,2.377-3.743,2.396-5.322c0.018-1.97-0.612-3.682-1.89-5.137c-1.225-1.401-3.105-2.119-5.643-2.155
			c-1.862-0.018-3.459,0.576-4.79,1.783c-1.331,1.206-1.996,2.732-1.996,4.577c0,2.005,0.745,3.868,2.235,5.589
			c1.207,1.384,3.194,2.98,5.962,4.79c4.222,2.751,7.434,5.527,9.634,8.33C320.158,507.563,320.948,509.904,320.966,512.602z
			 M315.989,514.518c0.035-2.218-0.639-4.09-2.022-5.615c-1.171-1.295-3.886-3.486-8.144-6.574
			c-1.863,1.242-3.203,2.741-4.019,4.498c-0.834,1.81-1.251,3.575-1.251,5.296c0,2.661,0.647,4.87,1.943,6.627
			c1.454,1.952,3.468,2.928,6.041,2.928c2.271,0,4.071-0.63,5.402-1.89C315.271,518.527,315.954,516.771,315.989,514.518z"/>
		<path fill="#FFFFFF" d="M321.871,521.597c2.258-0.283,3.66-0.887,4.208-1.81c0.37-0.656,0.556-2.28,0.556-4.87v-28.344
			c0-2.306-0.292-3.814-0.874-4.523c-0.582-0.71-1.879-1.153-3.89-1.331v-1.225h15.116v1.225c-2.088,0.159-3.435,0.656-4.041,1.49
			c-0.535,0.71-0.803,2.165-0.803,4.364v12.748h16.554v-12.748c0-2.324-0.284-3.832-0.852-4.523
			c-0.568-0.692-1.881-1.136-3.939-1.331v-1.225h15.144v1.225c-2.076,0.159-3.416,0.656-4.019,1.49
			c-0.515,0.71-0.772,2.165-0.772,4.364v29.115c0,2.378,0.284,3.89,0.853,4.537c0.567,0.648,1.88,1.104,3.938,1.371v1.171h-15.144
			v-1.171c2.271-0.283,3.682-0.887,4.231-1.81c0.373-0.656,0.56-2.28,0.56-4.87v-12.722h-16.554v13.493
			c0,2.359,0.303,3.886,0.91,4.577c0.553,0.639,1.864,1.083,3.934,1.331v1.171h-15.116V521.597z M348.697,500.705v-0.665h-16.554
			v0.665H348.697z"/>
	</g>
	<g>
		<path fill="#FFFFFF" d="M245.858,542.186h-0.845c0.045-0.383,0.067-0.716,0.067-0.997c0-0.553-0.09-0.97-0.271-1.251
			c-0.191-0.226-0.383-0.451-0.574-0.677c-0.519-0.664-1.736-0.997-3.651-0.997h-1.928l0.17,20.775
			c0.011,1.69,0.157,2.744,0.439,3.161c0.371,0.574,1.318,0.936,2.84,1.081v0.744h-10.092v-0.744
			c1.453-0.157,2.366-0.411,2.738-0.761c0.428-0.405,0.637-1.402,0.625-2.991l-0.169-21.266l-7.353-0.034l1.318-5.172h0.828
			c-0.022,0.259-0.034,0.49-0.034,0.692c0,0.575,0.107,0.961,0.321,1.158s0.423,0.392,0.626,0.583
			c0.45,0.677,1.673,1.015,3.668,1.015l12.813,0.034L245.858,542.186z"/>
		<path fill="#FFFFFF" d="M273.665,564.194h-9.956v-1.064c1.353-0.17,2.2-0.448,2.544-0.837s0.516-1.311,0.516-2.764v-2.485h-11.021
			v2.485c0,1.465,0.169,2.389,0.507,2.771c0.339,0.384,1.189,0.659,2.553,0.829v1.064h-9.956v-1.064
			c1.397-0.17,2.254-0.451,2.569-0.846s0.474-1.477,0.474-3.245v-2.857c0.146-1.769,0.332-3.392,0.558-4.868
			c0.541-3.55,1.233-6.103,2.079-7.657c0.958-1.758,1.93-3.187,2.916-4.285c0.985-1.099,2.324-2.24,4.015-3.423
			c1.589,1.239,2.845,2.406,3.77,3.499c0.924,1.093,1.843,2.496,2.755,4.209c1.037,1.961,1.916,6.221,2.638,12.779v2.604
			c0,1.769,0.157,2.851,0.473,3.245s1.172,0.676,2.569,0.846V564.194z M266.769,554.373c-0.146-4.643-0.519-7.854-1.115-9.635
			c-1.026-3.043-2.424-5.59-4.192-7.641c-1.206,1.172-2.147,2.344-2.823,3.516c-0.552,0.97-1.144,2.344-1.774,4.125
			c-0.812,2.299-1.184,5.511-1.116,9.635H266.769z M266.769,555.776v-0.727h-11.021v0.727H266.769z"/>
		<path fill="#FFFFFF" d="M277.875,536.15v0.778c-0.868,0-1.499,0.073-1.894,0.22c-0.563,0.214-0.851,0.659-0.862,1.335
			c-0.011,0.507,0.479,2.023,1.471,4.547l5.73,14.656l5.207-15.873c0.202-0.619,0.377-1.211,0.523-1.774
			c0.112-0.417,0.169-0.806,0.169-1.167c0.012-0.8-0.293-1.353-0.912-1.656c-0.271-0.136-0.857-0.23-1.759-0.287v-0.778h7.489v0.71
			c-0.812,0.158-1.387,0.4-1.725,0.728c-0.553,0.529-1.104,1.605-1.656,3.229l-8.098,23.699h-0.558l-9.044-23.158
			c-0.755-1.938-1.369-3.155-1.842-3.651c-0.439-0.462-1.104-0.744-1.995-0.846v-0.71H277.875z"/>
		<path fill="#FFFFFF" d="M294.372,563.281c1.364-0.18,2.221-0.501,2.569-0.963c0.315-0.417,0.474-1.347,0.474-2.789v-18.493
			c0-1.397-0.163-2.316-0.49-2.756c-0.383-0.518-1.233-0.839-2.553-0.963v-0.777h19.524l-1.656,5.967h-0.879
			c0.202-1.826,0.087-3.012-0.347-3.559c-0.435-0.546-1.852-0.819-4.252-0.819h-4.699c-0.496,0-0.816,0.112-0.963,0.338
			c-0.102,0.158-0.152,0.507-0.152,1.048v9.28h8.536l-3.212,1.64h-5.324v10.277c0,0.834,0.208,1.324,0.625,1.471
			s1.725,0.22,3.922,0.22c2.468,0,4.215-0.326,5.24-0.98c1.127-0.71,2.113-2.181,2.958-4.412h0.964l-1.572,7.016h-18.713V563.281z"
			/>
		<path fill="#FFFFFF" d="M315.485,563.281c1.394-0.157,2.272-0.558,2.635-1.2c0.238-0.439,0.357-1.453,0.357-3.042v-18.003
			c0-1.375-0.159-2.282-0.477-2.722c-0.386-0.529-1.224-0.862-2.516-0.997v-0.777h9.593c1.975,0,3.638,0.304,4.992,0.912
			c2.515,1.139,3.778,3.257,3.789,6.356c0,3.865-2.085,6.181-6.254,6.947c0.721,1.184,1.426,2.299,2.113,3.347
			c1.645,2.491,3.064,4.412,4.26,5.765c1.96,2.231,5.037,4.947,9.229,8.147c0.371,0.327,0.794,0.569,1.268,0.727
			c0.529,0.181,0.822,0.288,0.879,0.321c0.169,0.112,0.474,0.175,0.913,0.187c0.653,0.022,1.025,0.039,1.115,0.051v0.743h-5.443
			c-1.397-0.98-2.698-1.938-3.904-2.873c-2.907-2.231-5.122-4.159-6.644-5.781c-2.085-2.221-4.575-5.601-7.472-10.143l-1.943,0.102
			v8.182c0,1.544,0.192,2.524,0.577,2.941c0.352,0.383,1.207,0.653,2.566,0.811v0.744h-9.635V563.281z M327.329,548.88
			c1.829-0.891,2.75-2.598,2.761-5.122c0-2.4-0.824-4.04-2.473-4.919c-0.87-0.462-2.038-0.699-3.507-0.71
			c-0.858-0.012-1.383,0.033-1.575,0.135c-0.373,0.158-0.559,0.592-0.559,1.302v10.244
			C324.483,549.708,326.268,549.397,327.329,548.88z"/>
		<path fill="#FFFFFF" d="M359.502,541.053c-1.239,0.102-2.057,0.4-2.451,0.896c-0.226,0.281-0.704,1.03-1.437,2.248v23.953
			l-2.62,4.411v-28.787l-10.497-3.685v17.833c0,2.311,0.287,3.826,0.862,4.548c0.371,0.462,1.166,0.783,2.383,0.963v0.423h-10.159
			v-0.423c1.578-0.225,2.575-0.811,2.992-1.756c0.248-0.563,0.372-1.813,0.372-3.75v-16.875c0-1.527-0.215-2.541-0.643-3.039
			c-0.405-0.464-1.284-0.747-2.637-0.849v-0.456h7.826l9.585,3.888h6.423V541.053z"/>
	</g>
	<g>
		<path fill="#FFFFFF" d="M210.198,220H227.5v5.767h-10.958v10.669h8.709v5.767h-8.709v12.399H227.5v5.767h-17.302V220z"/>
		<path fill="#FFFFFF" d="M229.46,220h6.401l4.152,31.315h0.115L244.281,220h5.824l-6.112,40.37h-8.421L229.46,220z"/>
		<path fill="#FFFFFF" d="M253.162,220h17.302v5.767h-10.958v10.669h8.709v5.767h-8.709v12.399h10.958v5.767h-17.302V220z"/>
		<path fill="#FFFFFF" d="M274.096,220h7.959l6.171,24.164h0.115V220h5.651v40.37h-6.517l-7.612-29.47h-0.115v29.47h-5.652V220z"/>
		<path fill="#FFFFFF" d="M303.681,225.767h-6.632V220h19.607v5.767h-6.632v34.603h-6.344V225.767z"/>
		<path fill="#FFFFFF" d="M321.501,258.293c-1.653-1.768-2.479-4.268-2.479-7.497v-21.223c0-3.229,0.826-5.728,2.479-7.497
			c1.652-1.768,4.037-2.653,7.151-2.653s5.498,0.885,7.151,2.653c1.652,1.769,2.479,4.268,2.479,7.497v21.223
			c0,3.229-0.827,5.729-2.479,7.497c-1.653,1.769-4.037,2.653-7.151,2.653S323.153,260.062,321.501,258.293z M331.939,251.2v-22.031
			c0-2.653-1.096-3.979-3.287-3.979s-3.287,1.326-3.287,3.979V251.2c0,2.653,1.096,3.979,3.287,3.979S331.939,253.853,331.939,251.2
			z"/>
		<path fill="#FFFFFF" d="M343.818,258.322c-1.576-1.749-2.364-4.258-2.364-7.526v-2.307h5.998v2.769
			c0,2.615,1.096,3.921,3.287,3.921c1.076,0,1.894-0.317,2.451-0.952c0.557-0.634,0.836-1.663,0.836-3.085
			c0-1.691-0.385-3.181-1.153-4.469c-0.77-1.288-2.191-2.835-4.268-4.643c-2.615-2.307-4.44-4.392-5.479-6.257
			c-1.038-1.864-1.558-3.969-1.558-6.315c0-3.191,0.808-5.661,2.423-7.411c1.614-1.749,3.959-2.624,7.035-2.624
			c3.037,0,5.335,0.875,6.892,2.624c1.558,1.75,2.336,4.259,2.336,7.526v1.672h-5.998v-2.076c0-1.384-0.269-2.393-0.807-3.027
			c-0.539-0.634-1.327-0.952-2.365-0.952c-2.114,0-3.172,1.289-3.172,3.864c0,1.462,0.395,2.826,1.183,4.095
			c0.787,1.269,2.221,2.807,4.297,4.614c2.652,2.307,4.479,4.403,5.479,6.286c0.999,1.884,1.499,4.095,1.499,6.632
			c0,3.307-0.817,5.844-2.451,7.612c-1.634,1.769-4.008,2.653-7.122,2.653C347.721,260.946,345.395,260.072,343.818,258.322z"/>
	</g>
	<g>
		<path fill="#FFFFFF" d="M233.198,270h9.055l4.037,28.893h0.115L250.442,270h9.054v40.37h-5.997v-30.565h-0.115l-4.614,30.565
			h-5.306l-4.613-30.565h-0.115v30.565h-5.537V270z"/>
		<path fill="#FFFFFF" d="M264.225,270h17.302v5.767h-10.958v10.669h8.709v5.767h-8.709v12.399h10.958v5.768h-17.302V270z"/>
		<path fill="#FFFFFF" d="M285.159,270h7.959l6.171,24.164h0.115V270h5.651v40.37h-6.517l-7.612-29.47h-0.115v29.47h-5.652V270z"/>
		<path fill="#FFFFFF" d="M311.975,308.322c-1.614-1.75-2.422-4.258-2.422-7.526V270h6.344v31.258c0,1.383,0.278,2.384,0.836,2.998
			c0.558,0.615,1.355,0.923,2.394,0.923s1.836-0.308,2.394-0.923c0.557-0.614,0.836-1.615,0.836-2.998V270h6.113v30.796
			c0,3.269-0.808,5.776-2.422,7.526c-1.615,1.75-3.961,2.623-7.036,2.623C315.935,310.945,313.59,310.072,311.975,308.322z"/>
	</g>
	<g>
		<path fill="#FFFFFF" d="M233.198,320h16.782v5.767h-10.438v11.245h8.189v5.768h-8.189v17.59h-6.344V320z"/>
		<path fill="#FFFFFF" d="M255.056,358.293c-1.653-1.768-2.479-4.268-2.479-7.497v-21.224c0-3.229,0.826-5.728,2.479-7.496
			c1.652-1.769,4.037-2.653,7.151-2.653s5.498,0.885,7.151,2.653c1.652,1.769,2.479,4.268,2.479,7.496v21.224
			c0,3.229-0.827,5.729-2.479,7.497c-1.653,1.77-4.037,2.652-7.151,2.652S256.708,360.063,255.056,358.293z M265.494,351.199v-22.03
			c0-2.653-1.096-3.979-3.287-3.979s-3.287,1.326-3.287,3.979v22.03c0,2.653,1.096,3.979,3.287,3.979
			S265.494,353.853,265.494,351.199z"/>
		<path fill="#FFFFFF" d="M280.834,325.767h-6.632V320h19.607v5.767h-6.632v34.603h-6.344V325.767z"/>
		<path fill="#FFFFFF" d="M298.654,358.293c-1.653-1.768-2.479-4.268-2.479-7.497v-21.224c0-3.229,0.826-5.728,2.479-7.496
			c1.652-1.769,4.037-2.653,7.151-2.653s5.498,0.885,7.151,2.653c1.652,1.769,2.479,4.268,2.479,7.496v21.224
			c0,3.229-0.827,5.729-2.479,7.497c-1.653,1.77-4.037,2.652-7.151,2.652S300.307,360.063,298.654,358.293z M309.093,351.199v-22.03
			c0-2.653-1.096-3.979-3.287-3.979s-3.287,1.326-3.287,3.979v22.03c0,2.653,1.096,3.979,3.287,3.979
			S309.093,353.853,309.093,351.199z"/>
		<path fill="#FFFFFF" d="M320.973,358.322c-1.576-1.75-2.364-4.258-2.364-7.526v-2.308h5.998v2.77c0,2.614,1.096,3.921,3.287,3.921
			c1.076,0,1.894-0.317,2.451-0.952c0.557-0.634,0.836-1.662,0.836-3.085c0-1.691-0.385-3.181-1.153-4.47
			c-0.77-1.287-2.191-2.834-4.268-4.643c-2.615-2.307-4.44-4.392-5.479-6.257c-1.038-1.864-1.558-3.97-1.558-6.315
			c0-3.19,0.808-5.66,2.423-7.41c1.614-1.749,3.959-2.624,7.035-2.624c3.037,0,5.335,0.875,6.892,2.624
			c1.558,1.75,2.336,4.259,2.336,7.525v1.673h-5.998v-2.076c0-1.384-0.269-2.394-0.807-3.027c-0.539-0.634-1.327-0.952-2.365-0.952
			c-2.114,0-3.172,1.289-3.172,3.864c0,1.462,0.395,2.826,1.183,4.095c0.787,1.27,2.221,2.807,4.297,4.613
			c2.652,2.307,4.479,4.403,5.479,6.287c0.999,1.884,1.499,4.094,1.499,6.632c0,3.307-0.817,5.845-2.451,7.612
			c-1.634,1.77-4.008,2.652-7.122,2.652C324.875,360.945,322.549,360.072,320.973,358.322z"/>
	</g>
</g>
<g id="Capa_3" display="none">
	
		<image display="inline" overflow="visible" width="390" height="600" xlink:href="E94CB26B.jpg"  transform="matrix(0.9999 0 0 0.9999 0.0483 0.0376)">
	</image>
	<g id="Capa_2_1_" display="inline" opacity="0.8">
		<g>
			<path fill="#FFFFFF" d="M318.761,458.648c0.073,0.2,0.146,0.4,0.221,0.601c1.858,5.021,3.722,10.043,5.572,15.064
				c0.658,1.784,0.109,3.513-1.39,4.476c-1.778,1.138-4.207,0.457-5.136-1.447c-0.135-0.275-0.238-0.566-0.345-0.854
				c-1.821-4.919-3.642-9.838-5.461-14.757c-0.073-0.198-0.147-0.395-0.276-0.746c-0.154,0.308-0.242,0.473-0.32,0.642
				c-0.946,2.053-1.863,4.12-2.844,6.156c-1.147,2.388-4.186,2.918-6.063,1.097c-1.154-1.122-1.456-2.787-0.744-4.355
				c1.286-2.833,2.596-5.656,3.894-8.481c1.323-2.876,2.645-5.753,3.968-8.627c0.458-0.995,0.635-1.065,1.606-0.618
				c5.686,2.612,11.376,5.217,17.056,7.847c2.752,1.274,3.208,4.762,0.854,6.515c-1.198,0.892-2.526,1.026-3.897,0.403
				c-2.025-0.921-4.046-1.853-6.063-2.792c-0.177-0.081-0.308-0.255-0.458-0.387C318.876,458.471,318.818,458.561,318.761,458.648z"
				/>
		</g>
	</g>
	<g id="Capa_2_4_" display="inline" opacity="0.8">
		<g>
			<path fill="#FFFFFF" d="M146.867,37.457c-0.275-0.421-0.55-0.841-0.826-1.261c-6.929-10.54-13.868-21.082-20.779-31.628
				c-2.458-3.746-2.114-8.005,0.817-11.01c3.479-3.555,9.416-3.28,12.557,0.599c0.457,0.56,0.848,1.174,1.245,1.779
				c6.789,10.326,13.577,20.653,20.361,30.98c0.274,0.417,0.547,0.828,1.03,1.567c0.192-0.789,0.306-1.214,0.395-1.643
				c1.084-5.215,2.093-10.447,3.264-15.64c1.368-6.09,8.062-8.918,13.336-5.733c3.244,1.964,4.82,5.627,4.018,9.604
				c-1.45,7.186-2.959,14.361-4.441,21.535c-1.513,7.303-3.02,14.608-4.535,21.908c-0.523,2.527-0.892,2.783-3.359,2.271
				c-14.438-2.981-28.881-5.943-43.314-8.97c-6.994-1.466-9.89-9.23-5.417-14.501c2.279-2.683,5.256-3.696,8.733-2.994
				c5.139,1.041,10.271,2.108,15.398,3.196c0.448,0.091,0.841,0.421,1.256,0.644C146.695,37.927,146.78,37.69,146.867,37.457z"/>
		</g>
	</g>
	<g id="Capa_2_2_" display="inline" opacity="0.5">
		<g>
			<path fill="#FEA621" d="M148.34,514.771c-0.204,0.457-0.408,0.918-0.611,1.377c-5.094,11.522-10.183,23.058-15.291,34.568
				c-1.814,4.092-5.575,6.11-9.685,5.279c-4.868-0.996-7.852-6.126-6.298-10.865c0.224-0.686,0.526-1.345,0.819-2.006
				c4.99-11.292,9.981-22.58,14.974-33.869c0.202-0.455,0.398-0.907,0.757-1.713c-0.766,0.267-1.185,0.4-1.593,0.558
				c-4.964,1.916-9.901,3.902-14.895,5.731c-5.852,2.15-11.851-1.936-12.033-8.088c-0.11-3.786,2.111-7.093,5.885-8.572
				c6.816-2.674,13.656-5.294,20.479-7.938c6.949-2.686,13.896-5.376,20.843-8.059c2.404-0.929,2.819-0.76,3.726,1.59
				c5.315,13.732,10.653,27.459,15.932,41.211c2.556,6.662-2.391,13.299-9.239,12.399c-3.483-0.459-5.947-2.409-7.241-5.709
				c-1.911-4.876-3.793-9.76-5.659-14.653c-0.165-0.427-0.101-0.936-0.139-1.404C148.827,514.66,148.582,514.717,148.34,514.771z"/>
		</g>
	</g>
	<g id="Capa_2_3_" display="inline" opacity="0.5">
		<g>
			<path fill="#FEA621" d="M343.188,152.799c0.153,0.209,0.308,0.419,0.462,0.628c3.874,5.241,7.755,10.483,11.621,15.728
				c1.374,1.864,1.318,4.071-0.108,5.705c-1.694,1.933-4.765,1.959-6.496,0.047c-0.251-0.276-0.47-0.581-0.692-0.882
				c-3.798-5.135-7.592-10.271-11.388-15.406c-0.153-0.207-0.306-0.412-0.575-0.779c-0.077,0.412-0.125,0.635-0.158,0.859
				c-0.409,2.721-0.782,5.45-1.239,8.163c-0.532,3.181-3.905,4.831-6.718,3.336c-1.729-0.92-2.646-2.766-2.346-4.841
				c0.545-3.749,1.119-7.494,1.678-11.238c0.573-3.812,1.145-7.623,1.718-11.433c0.199-1.319,0.38-1.462,1.668-1.268
				c7.534,1.128,15.071,2.246,22.605,3.396c3.648,0.557,5.365,4.481,3.206,7.328c-1.099,1.448-2.605,2.056-4.421,1.792
				c-2.681-0.39-5.358-0.795-8.035-1.21c-0.234-0.035-0.447-0.194-0.667-0.298C343.262,152.552,343.225,152.677,343.188,152.799z"/>
		</g>
	</g>
	<g display="inline" opacity="0.9">
		<path fill="none" stroke="#FEA621" stroke-width="3" stroke-miterlimit="10" d="M347.211,557.935
			c5.264,5.258,10.529,10.527,15.785,15.797c1.619,1.625,1.604,3.313-0.023,4.951c-0.412,0.426-0.834,0.843-1.252,1.258
			c-1.631,1.614-3.318,1.629-4.949,0.001c-8.236-8.222-16.465-16.454-24.688-24.699c-0.357-0.35-0.68-0.757-0.891-1.194
			c-0.643-1.328-0.322-2.541,0.951-3.82c8.172-8.168,16.338-16.336,24.51-24.505c0.148-0.146,0.291-0.292,0.449-0.427
			c1.342-1.162,2.906-1.166,4.236,0.015c0.555,0.487,1.061,1.032,1.58,1.555c1.666,1.681,1.68,3.341,0.012,5.015
			c-4.939,4.957-9.887,9.91-14.844,14.856c-1.982,1.981-3.982,3.942-6.107,6.042C343.811,554.579,345.525,556.247,347.211,557.935z"
			/>
	</g>
	<g display="inline" opacity="0.9">
		<path fill="none" stroke="#FEA621" stroke-width="3" stroke-miterlimit="10" d="M31.453,31.805
			c-1.816,5.749-3.64,11.503-5.467,17.25c-0.564,1.771-1.783,2.39-3.569,1.832c-0.46-0.137-0.917-0.285-1.372-0.431
			c-1.77-0.57-2.41-1.778-1.849-3.559c2.837-8.993,5.686-17.984,8.545-26.976c0.118-0.387,0.29-0.771,0.526-1.086
			c0.715-0.958,1.708-1.181,3.103-0.742c8.925,2.827,17.848,5.65,26.774,8.477c0.161,0.052,0.319,0.1,0.475,0.164
			c1.336,0.531,1.924,1.655,1.571,3.052c-0.143,0.581-0.346,1.148-0.528,1.717c-0.586,1.826-1.775,2.455-3.602,1.88
			c-5.409-1.701-10.818-3.41-16.227-5.127c-2.165-0.686-4.322-1.392-6.625-2.136C32.597,28.106,32.037,29.963,31.453,31.805z"/>
	</g>
	<g display="inline" opacity="0.9">
		<path fill="none" stroke="#FFFFFF" stroke-width="2" stroke-miterlimit="10" d="M37.512,462.926
			c-2.126-2.1-4.125-4.061-6.108-6.042c-4.957-4.946-9.904-9.899-14.844-14.856c-1.667-1.674-1.654-3.334,0.013-5.015
			c0.519-0.522,1.024-1.067,1.579-1.555c1.33-1.181,2.895-1.177,4.236-0.015c0.158,0.135,0.302,0.28,0.449,0.427
			c8.172,8.169,16.338,16.337,24.511,24.505c1.272,1.279,1.593,2.492,0.95,3.82c-0.211,0.438-0.532,0.845-0.891,1.194
			c-8.223,8.245-16.451,16.478-24.687,24.699c-1.632,1.628-3.318,1.613-4.949-0.001c-0.419-0.415-0.84-0.832-1.253-1.258
			c-1.627-1.639-1.643-3.326-0.023-4.951c5.256-5.27,10.522-10.539,15.786-15.797C33.966,466.395,35.681,464.727,37.512,462.926z"/>
	</g>
	<g display="inline">
		<path fill="#140028" d="M64.468,102.532c1.913,2.908,3.11,6.261,3.591,10.062c0.481,3.802,0.155,7.333-0.976,10.595
			c-1.133,3.263-2.782,5.953-4.95,8.068c-4.381,4.358-9.173,6.865-14.377,7.523l-10.965,1.388l1.254,9.913
			c0.17,1.346,0.254,2.359,0.251,3.043c-0.002,0.683-0.183,1.493-0.539,2.43c-0.62,1.683-2.801,2.759-6.542,3.233
			c-4.094,0.518-6.628-0.259-7.604-2.335c-0.477-0.948-0.844-2.446-1.104-4.495l-6.162-48.683c-0.17-1.345-0.254-2.359-0.251-3.043
			c0.002-0.683,0.181-1.495,0.539-2.43c0.619-1.683,2.799-2.761,6.542-3.235l18.772-2.375c5.146-0.651,10.382,0.589,15.711,3.716
			C60.285,97.417,62.555,99.626,64.468,102.532z M50.81,120.659c1.532-1.5,2.137-3.537,1.811-6.111
			c-0.326-2.573-1.42-4.41-3.282-5.511c-1.863-1.101-3.701-1.537-5.513-1.308l-10.965,1.388l1.965,15.525l11.053-1.398
			C47.633,123.022,49.275,122.162,50.81,120.659z"/>
		<path fill="#140028" d="M113.124,85.591c0.465-1.009,1.232-1.76,2.299-2.252c1.066-0.491,2.434-0.842,4.1-1.053
			c1.667-0.211,3.015-0.232,4.047-0.067c1.031,0.168,1.836,0.422,2.414,0.765c0.578,0.342,1.036,0.909,1.373,1.696
			c0.478,0.951,0.845,2.449,1.104,4.495l3.353,26.491c0.977,7.72-0.533,15.04-4.528,21.963c-1.962,3.277-4.668,6.072-8.119,8.38
			c-3.451,2.309-7.414,3.745-11.888,4.312c-4.473,0.566-8.657,0.145-12.547-1.264c-3.893-1.408-7.17-3.489-9.836-6.241
			c-5.522-5.598-8.778-12.316-9.77-20.153L71.783,96.26c-0.178-1.404-0.265-2.447-0.262-3.131c0.003-0.683,0.181-1.493,0.539-2.43
			c0.357-0.936,1.069-1.649,2.136-2.142c1.066-0.491,2.534-0.855,4.407-1.092c1.87-0.237,3.384-0.251,4.54-0.041
			c1.154,0.211,1.993,0.729,2.513,1.553c0.873,1.257,1.457,3.055,1.752,5.393l3.331,26.315c0.452,3.568,1.758,6.849,3.919,9.843
			c1.085,1.527,2.567,2.677,4.447,3.448c1.88,0.773,4.018,1.006,6.417,0.703c4.268-0.541,7.256-2.522,8.962-5.948
			c1.706-3.423,2.295-7.211,1.77-11.363l-3.397-26.843C112.568,88.245,112.656,86.601,113.124,85.591z"/>
		<path fill="#140028" d="M182.922,124.438c2.281-0.289,3.968-0.219,5.062,0.206c1.093,0.427,1.896,1.141,2.41,2.146
			c0.514,1.003,0.874,2.325,1.081,3.962c0.207,1.638,0.228,2.973,0.062,4.004c-0.167,1.031-0.423,1.835-0.765,2.413
			c-0.343,0.579-0.908,1.037-1.697,1.374c-0.892,0.469-2.36,0.833-4.407,1.092l-36.491,4.618c-1.346,0.17-2.676-0.018-3.993-0.563
			c-2.759-1.135-4.337-3.284-4.736-6.441c-0.192-1.521,0.003-2.793,0.586-3.818l22.43-41.072l-20.175,2.553
			c-1.403,0.178-2.448,0.264-3.13,0.262c-0.684-0.002-1.52-0.149-2.507-0.44c-1.8-0.603-2.924-2.689-3.376-6.256
			c-0.474-3.742,0.027-6.123,1.502-7.142c0.818-0.579,1.557-0.955,2.219-1.128c0.66-0.173,1.693-0.347,3.097-0.525l35.263-4.463
			c1.345-0.17,2.677,0.018,3.993,0.563c1.317,0.545,2.386,1.363,3.206,2.446c0.819,1.087,1.331,2.416,1.53,3.996
			c0.2,1.579,0.009,2.88-0.575,3.905l-22.43,41.073L182.922,124.438z"/>
		<path fill="#140028" d="M221.611,101.983c10.034,7.464,17.197,13.123,21.488,16.978c2.203,1.919,3.399,3.624,3.588,5.115
			c0.188,1.492-0.76,3.394-2.842,5.708c-2.085,2.313-3.872,3.565-5.363,3.753c-1.491,0.189-3.444-0.811-5.86-3l-22.085-19.575
			l2.165,17.104c0.178,1.403,0.264,2.433,0.257,3.087c-0.006,0.654-0.188,1.45-0.545,2.386c-0.619,1.683-2.801,2.762-6.542,3.235
			c-4.094,0.518-6.632-0.289-7.614-2.423c-0.47-0.889-0.834-2.359-1.093-4.406l-6.173-48.771c-0.17-1.345-0.254-2.359-0.252-3.043
			c0.003-0.683,0.182-1.494,0.54-2.43c0.618-1.683,2.799-2.761,6.542-3.235c4.093-0.518,6.657,0.258,7.691,2.324
			c0.418,0.958,0.757,2.46,1.016,4.506l2.12,16.754c6.82-9.954,12.325-18.106,16.512-24.459c1.743-2.656,3.374-4.081,4.896-4.273
			c1.521-0.192,3.578,0.571,6.173,2.292c2.593,1.722,3.985,3.329,4.175,4.82c0.188,1.491-0.465,3.371-1.96,5.64
			c-2.896,4.348-7.479,10.394-13.746,18.139L221.611,101.983z"/>
		<path fill="#140028" d="M287.507,63.521c0.466-1.01,1.231-1.761,2.3-2.253c1.065-0.491,2.433-0.842,4.1-1.053
			s3.015-0.232,4.047-0.067c1.031,0.168,1.836,0.422,2.414,0.765c0.578,0.342,1.035,0.909,1.373,1.696
			c0.477,0.951,0.845,2.449,1.104,4.495l3.353,26.491c0.978,7.72-0.533,15.04-4.528,21.963c-1.962,3.278-4.668,6.072-8.119,8.38
			c-3.45,2.309-7.413,3.745-11.887,4.312c-4.474,0.566-8.657,0.145-12.548-1.264c-3.893-1.408-7.171-3.489-9.836-6.241
			c-5.521-5.598-8.778-12.316-9.771-20.153l-3.341-26.402c-0.178-1.404-0.266-2.447-0.263-3.131
			c0.003-0.683,0.182-1.494,0.539-2.431c0.356-0.935,1.068-1.649,2.135-2.142c1.066-0.491,2.535-0.855,4.407-1.092
			c1.871-0.237,3.385-0.25,4.54-0.041c1.154,0.211,1.993,0.729,2.514,1.553c0.873,1.257,1.456,3.056,1.752,5.394l3.331,26.315
			c0.451,3.568,1.759,6.849,3.92,9.842c1.084,1.527,2.566,2.677,4.446,3.448c1.881,0.773,4.019,1.007,6.417,0.703
			c4.269-0.54,7.257-2.522,8.962-5.947c1.705-3.424,2.296-7.211,1.771-11.364l-3.397-26.843
			C286.951,66.174,287.039,64.53,287.507,63.521z"/>
	</g>
	<g display="inline">
		<path fill="#FFFFFF" d="M71.468,101.072c1.913,2.908,3.11,6.261,3.591,10.062c0.481,3.802,0.155,7.333-0.976,10.595
			c-1.133,3.263-2.782,5.953-4.95,8.068c-4.381,4.358-9.173,6.865-14.377,7.523l-10.965,1.388l1.254,9.913
			c0.17,1.346,0.254,2.359,0.251,3.043c-0.002,0.683-0.183,1.493-0.539,2.43c-0.62,1.683-2.801,2.759-6.542,3.233
			c-4.094,0.518-6.628-0.259-7.604-2.335c-0.477-0.948-0.844-2.446-1.104-4.495l-6.162-48.683c-0.17-1.345-0.254-2.359-0.251-3.043
			c0.002-0.683,0.181-1.495,0.539-2.43c0.619-1.683,2.799-2.761,6.542-3.235l18.772-2.375c5.146-0.651,10.382,0.589,15.711,3.716
			C67.285,95.957,69.555,98.166,71.468,101.072z M57.81,119.199c1.532-1.5,2.137-3.537,1.811-6.111
			c-0.326-2.573-1.42-4.41-3.282-5.511c-1.863-1.101-3.701-1.537-5.513-1.308l-10.965,1.388l1.965,15.525l11.053-1.398
			C54.633,121.562,56.275,120.702,57.81,119.199z"/>
		<path fill="#FFFFFF" d="M120.124,84.13c0.465-1.009,1.232-1.76,2.299-2.252c1.066-0.491,2.434-0.842,4.1-1.053
			c1.667-0.211,3.015-0.232,4.047-0.067c1.031,0.168,1.836,0.422,2.414,0.765c0.578,0.342,1.036,0.909,1.373,1.696
			c0.478,0.951,0.845,2.449,1.104,4.495l3.353,26.491c0.977,7.72-0.533,15.04-4.528,21.963c-1.962,3.277-4.668,6.072-8.119,8.38
			c-3.451,2.309-7.414,3.745-11.888,4.312c-4.473,0.566-8.657,0.145-12.547-1.264c-3.893-1.408-7.17-3.489-9.836-6.241
			c-5.522-5.598-8.778-12.316-9.77-20.153l-3.342-26.402c-0.178-1.404-0.265-2.447-0.262-3.131c0.003-0.683,0.181-1.493,0.539-2.43
			c0.357-0.936,1.069-1.649,2.136-2.142c1.066-0.491,2.534-0.855,4.407-1.092c1.87-0.237,3.384-0.251,4.54-0.041
			c1.154,0.211,1.993,0.729,2.513,1.553c0.873,1.257,1.457,3.055,1.752,5.393l3.331,26.315c0.452,3.568,1.758,6.849,3.919,9.843
			c1.085,1.527,2.567,2.677,4.447,3.448c1.88,0.773,4.018,1.006,6.417,0.703c4.268-0.541,7.256-2.522,8.962-5.948
			c1.706-3.423,2.295-7.211,1.77-11.363l-3.397-26.843C119.568,86.785,119.656,85.14,120.124,84.13z"/>
		<path fill="#FFFFFF" d="M189.922,122.977c2.281-0.289,3.968-0.219,5.062,0.206c1.093,0.427,1.896,1.141,2.41,2.146
			c0.514,1.003,0.874,2.325,1.081,3.962c0.207,1.638,0.228,2.973,0.062,4.004c-0.167,1.031-0.423,1.835-0.765,2.413
			c-0.343,0.579-0.908,1.037-1.697,1.374c-0.892,0.469-2.36,0.833-4.407,1.092l-36.491,4.618c-1.346,0.17-2.676-0.018-3.993-0.563
			c-2.759-1.135-4.337-3.284-4.736-6.441c-0.192-1.521,0.003-2.793,0.586-3.818l22.43-41.072l-20.175,2.553
			c-1.403,0.178-2.448,0.264-3.13,0.262c-0.684-0.002-1.52-0.149-2.507-0.44c-1.8-0.603-2.924-2.689-3.376-6.256
			c-0.474-3.742,0.027-6.123,1.502-7.142c0.818-0.579,1.557-0.955,2.219-1.128c0.66-0.173,1.693-0.347,3.097-0.525l35.263-4.463
			c1.345-0.17,2.677,0.018,3.993,0.563c1.317,0.545,2.386,1.363,3.206,2.446c0.819,1.087,1.331,2.416,1.53,3.996
			c0.2,1.579,0.009,2.88-0.575,3.905l-22.43,41.073L189.922,122.977z"/>
		<path fill="#FFFFFF" d="M228.611,100.522c10.034,7.464,17.197,13.123,21.488,16.978c2.203,1.919,3.399,3.624,3.588,5.115
			c0.188,1.492-0.76,3.394-2.842,5.708c-2.085,2.313-3.872,3.565-5.363,3.753c-1.491,0.189-3.444-0.811-5.86-3L217.537,109.5
			l2.165,17.104c0.178,1.403,0.264,2.433,0.257,3.087c-0.006,0.654-0.188,1.45-0.545,2.386c-0.619,1.683-2.801,2.762-6.542,3.235
			c-4.094,0.518-6.632-0.289-7.614-2.423c-0.47-0.889-0.834-2.359-1.093-4.406l-6.173-48.771c-0.17-1.345-0.254-2.359-0.252-3.043
			c0.003-0.683,0.182-1.494,0.54-2.43c0.618-1.683,2.799-2.761,6.542-3.235c4.093-0.518,6.657,0.258,7.691,2.324
			c0.418,0.958,0.757,2.46,1.016,4.506l2.12,16.754c6.82-9.954,12.325-18.106,16.512-24.459c1.743-2.656,3.374-4.081,4.896-4.273
			c1.521-0.192,3.578,0.571,6.173,2.292c2.593,1.722,3.985,3.329,4.175,4.82c0.188,1.491-0.465,3.371-1.96,5.64
			c-2.896,4.348-7.479,10.394-13.746,18.139L228.611,100.522z"/>
		<path fill="#FFFFFF" d="M294.507,62.06c0.466-1.01,1.231-1.761,2.3-2.253c1.065-0.491,2.433-0.842,4.1-1.053
			s3.015-0.232,4.047-0.067c1.031,0.168,1.836,0.422,2.414,0.765c0.578,0.342,1.035,0.909,1.373,1.696
			c0.477,0.951,0.845,2.449,1.104,4.495l3.353,26.491c0.978,7.72-0.533,15.04-4.528,21.963c-1.962,3.278-4.668,6.072-8.119,8.38
			c-3.45,2.309-7.413,3.745-11.887,4.312c-4.474,0.566-8.657,0.145-12.548-1.264c-3.893-1.408-7.171-3.489-9.836-6.241
			c-5.521-5.598-8.778-12.316-9.771-20.153l-3.341-26.402c-0.178-1.404-0.266-2.447-0.263-3.131
			c0.003-0.683,0.182-1.494,0.539-2.431c0.356-0.935,1.068-1.649,2.135-2.142c1.066-0.491,2.535-0.855,4.407-1.092
			c1.871-0.237,3.385-0.25,4.54-0.041c1.154,0.211,1.993,0.729,2.514,1.553c0.873,1.257,1.456,3.056,1.752,5.394l3.331,26.315
			c0.451,3.568,1.759,6.849,3.92,9.842c1.084,1.527,2.566,2.677,4.446,3.448c1.881,0.773,4.019,1.007,6.417,0.703
			c4.269-0.54,7.257-2.522,8.962-5.947c1.705-3.424,2.296-7.211,1.771-11.364l-3.397-26.843
			C293.951,64.714,294.039,63.07,294.507,62.06z"/>
	</g>
	<g display="inline">
		<path fill="#FEA621" stroke="#000000" stroke-width="3" stroke-miterlimit="10" d="M75.968,100.072
			c1.913,2.908,3.11,6.261,3.591,10.062c0.481,3.802,0.155,7.333-0.976,10.595c-1.133,3.263-2.782,5.953-4.95,8.068
			c-4.381,4.358-9.173,6.865-14.377,7.523l-10.965,1.388l1.254,9.913c0.17,1.346,0.254,2.359,0.251,3.043
			c-0.002,0.683-0.183,1.493-0.539,2.43c-0.62,1.683-2.801,2.759-6.542,3.233c-4.094,0.518-6.628-0.259-7.604-2.335
			c-0.477-0.948-0.844-2.446-1.104-4.495l-6.162-48.683c-0.17-1.345-0.254-2.359-0.251-3.043c0.002-0.683,0.181-1.495,0.539-2.43
			c0.619-1.683,2.799-2.761,6.542-3.235l18.772-2.375c5.146-0.651,10.382,0.589,15.711,3.716
			C71.785,94.957,74.055,97.166,75.968,100.072z M62.31,118.199c1.532-1.5,2.137-3.537,1.811-6.111
			c-0.326-2.573-1.42-4.41-3.282-5.511c-1.863-1.101-3.701-1.537-5.513-1.308l-10.965,1.388l1.965,15.525l11.053-1.398
			C59.133,120.562,60.775,119.702,62.31,118.199z"/>
		<path fill="#FEA621" stroke="#000000" stroke-width="3" stroke-miterlimit="10" d="M124.624,83.13
			c0.465-1.009,1.232-1.76,2.299-2.252c1.066-0.491,2.434-0.842,4.1-1.053c1.667-0.211,3.015-0.232,4.047-0.067
			c1.031,0.168,1.836,0.422,2.414,0.765c0.578,0.342,1.036,0.909,1.373,1.696c0.478,0.951,0.845,2.449,1.104,4.495l3.353,26.491
			c0.977,7.72-0.533,15.04-4.528,21.963c-1.962,3.277-4.668,6.072-8.119,8.38c-3.451,2.309-7.414,3.745-11.888,4.312
			c-4.473,0.566-8.657,0.145-12.547-1.264c-3.893-1.408-7.17-3.489-9.836-6.241c-5.522-5.598-8.778-12.316-9.77-20.153
			l-3.342-26.402c-0.178-1.404-0.265-2.447-0.262-3.131c0.003-0.683,0.181-1.493,0.539-2.43c0.357-0.936,1.069-1.649,2.136-2.142
			c1.066-0.491,2.534-0.855,4.407-1.092c1.87-0.237,3.384-0.251,4.54-0.041c1.154,0.211,1.993,0.729,2.513,1.553
			c0.873,1.257,1.457,3.055,1.752,5.393l3.331,26.315c0.452,3.568,1.758,6.849,3.919,9.843c1.085,1.527,2.567,2.677,4.447,3.448
			c1.88,0.773,4.018,1.006,6.417,0.703c4.268-0.541,7.256-2.522,8.962-5.948c1.706-3.423,2.295-7.211,1.77-11.363l-3.397-26.843
			C124.068,85.785,124.156,84.14,124.624,83.13z"/>
		<path fill="#FEA621" stroke="#000000" stroke-width="3" stroke-miterlimit="10" d="M194.422,121.977
			c2.281-0.289,3.968-0.219,5.062,0.206c1.093,0.427,1.896,1.141,2.41,2.146c0.514,1.003,0.874,2.325,1.081,3.962
			c0.207,1.638,0.228,2.973,0.062,4.004c-0.167,1.031-0.423,1.835-0.765,2.413c-0.343,0.579-0.908,1.037-1.697,1.374
			c-0.892,0.469-2.36,0.833-4.407,1.092l-36.491,4.618c-1.346,0.17-2.676-0.018-3.993-0.563c-2.759-1.135-4.337-3.284-4.736-6.441
			c-0.192-1.521,0.003-2.793,0.586-3.818l22.43-41.072l-20.175,2.553c-1.403,0.178-2.448,0.264-3.13,0.262
			c-0.684-0.002-1.52-0.149-2.507-0.44c-1.8-0.603-2.924-2.689-3.376-6.256c-0.474-3.742,0.027-6.123,1.502-7.142
			c0.818-0.579,1.557-0.955,2.219-1.128c0.66-0.173,1.693-0.347,3.097-0.525l35.263-4.463c1.345-0.17,2.677,0.018,3.993,0.563
			c1.317,0.545,2.386,1.363,3.206,2.446c0.819,1.087,1.331,2.416,1.53,3.996c0.2,1.579,0.009,2.88-0.575,3.905l-22.43,41.073
			L194.422,121.977z"/>
		<path fill="#FEA621" stroke="#000000" stroke-width="3" stroke-miterlimit="10" d="M233.111,99.522
			c10.034,7.464,17.197,13.123,21.488,16.978c2.203,1.919,3.399,3.624,3.588,5.115c0.188,1.492-0.76,3.394-2.842,5.708
			c-2.085,2.313-3.872,3.565-5.363,3.753c-1.491,0.189-3.444-0.811-5.86-3L222.037,108.5l2.165,17.104
			c0.178,1.403,0.264,2.433,0.257,3.087c-0.006,0.654-0.188,1.45-0.545,2.386c-0.619,1.683-2.801,2.762-6.542,3.235
			c-4.094,0.518-6.632-0.289-7.614-2.423c-0.47-0.889-0.834-2.359-1.093-4.406l-6.173-48.771c-0.17-1.345-0.254-2.359-0.252-3.043
			c0.003-0.683,0.182-1.494,0.54-2.43c0.618-1.683,2.799-2.761,6.542-3.235c4.093-0.518,6.657,0.258,7.691,2.324
			c0.418,0.958,0.757,2.46,1.016,4.506l2.12,16.754c6.82-9.954,12.325-18.106,16.512-24.459c1.743-2.656,3.374-4.081,4.896-4.273
			c1.521-0.192,3.578,0.571,6.173,2.292c2.593,1.722,3.985,3.329,4.175,4.82c0.188,1.491-0.465,3.371-1.96,5.64
			c-2.896,4.348-7.479,10.394-13.746,18.139L233.111,99.522z"/>
		<path fill="#FEA621" stroke="#000000" stroke-width="3" stroke-miterlimit="10" d="M299.007,61.06
			c0.466-1.01,1.231-1.761,2.3-2.253c1.065-0.491,2.433-0.842,4.1-1.053s3.015-0.232,4.047-0.067
			c1.031,0.168,1.836,0.422,2.414,0.765c0.578,0.342,1.035,0.909,1.373,1.696c0.477,0.951,0.845,2.449,1.104,4.495l3.353,26.491
			c0.978,7.72-0.533,15.04-4.528,21.963c-1.962,3.278-4.668,6.072-8.119,8.38c-3.45,2.309-7.413,3.745-11.887,4.312
			c-4.474,0.566-8.657,0.145-12.548-1.264c-3.893-1.408-7.171-3.489-9.836-6.241c-5.521-5.598-8.778-12.316-9.771-20.153
			l-3.341-26.402c-0.178-1.404-0.266-2.447-0.263-3.131c0.003-0.683,0.182-1.494,0.539-2.431c0.356-0.935,1.068-1.649,2.135-2.142
			c1.066-0.491,2.535-0.855,4.407-1.092c1.871-0.237,3.385-0.25,4.54-0.041c1.154,0.211,1.993,0.729,2.514,1.553
			c0.873,1.257,1.456,3.056,1.752,5.394l3.331,26.315c0.451,3.568,1.759,6.849,3.92,9.842c1.084,1.527,2.566,2.677,4.446,3.448
			c1.881,0.773,4.019,1.007,6.417,0.703c4.269-0.54,7.257-2.522,8.962-5.947c1.705-3.424,2.296-7.211,1.771-11.364l-3.397-26.843
			C298.451,63.714,298.539,62.07,299.007,61.06z"/>
	</g>
</g>
<g id="Capa_2">
	<g>
		<path fill="#092300" d="M150.831,293.489H106.89v-1.983c6.282-0.595,10.299-2.066,12.052-4.414
			c1.751-2.347,2.628-7.752,2.628-16.218v-89.073l-32.634,22.417v109.308l-8.332,18.151V204.417l-34.221-22.913v84.114
			c0,10.911,1.332,18.02,3.994,21.326c1.729,2.182,5.491,3.704,11.281,4.563v1.983h-47.81v-1.983
			c6.586-0.992,10.895-2.941,12.926-5.853c2.028-2.909,3.043-9.587,3.043-20.036v-79.253c0-7.273-1.026-12.002-3.075-14.184
			c-1.654-2.116-5.787-3.438-12.399-3.968v-2.182h36.701l34.32,24.5l35.708-24.5h29.757v2.182
			c-5.886,0.463-9.738,1.869-11.556,4.216c-1.819,2.348-2.728,6.993-2.728,13.936v86.792c0,7.077,0.925,11.803,2.777,14.184
			c1.785,1.919,5.62,3.308,11.506,4.166V293.489z"/>
	</g>
	<g>
		<path fill-rule="evenodd" clip-rule="evenodd" fill="#092300" d="M49.303,360.372c0.705-2.422,1.091-5.048,2.202-7.215
			c1.268-2.473,3.182-4.536,5.218-6.746c0.999,8.65,5.299,12.304,12.642,11.574c4.394-0.438,6.628-2.604,7.538-6.991
			c-1.824-0.873-4.304-0.896-4.662-4.279c1.548,0.398,3.007,0.774,5.216,1.343c-1.145-3.123-2.079-5.669-3.187-8.69
			c-0.508,0.954-0.715,1.255-0.84,1.593c-0.587,1.595-1.465,2.807-3.183,2.558c-1.713-0.25-2.87-1.427-3.322-3.247
			c-0.514-2.071-0.318-4.104,1.117-5.704c1.397-1.556,3.082-1.282,4.762-0.628c2.851,1.111,4.618,3.389,5.511,6.514
			c0.656,2.298,1.181,4.64,1.797,7.095c0.68,0,1.389,0,1.907,0c-2.175-31.807-2.346-63.474,2.312-95.71
			c0.9,7.08,1.505,13.541,2.576,19.906c2.474,14.706,1.256,29.536,1.481,44.314c0.148,9.739,0.434,19.509-1.473,29.139
			c-0.145,0.73,0.374,1.625,0.584,2.441c0.574-0.68,1.402-1.257,1.671-2.063c0.609-1.828,0.821-3.819,1.413-5.658
			c1.115-3.456,3.358-5.648,6.615-6.372c2.416-0.537,4.273,0.988,4.757,3.698c0.5,2.797-0.803,5.813-2.972,6.111
			c-0.988,0.136-2.173-0.699-3.124-1.354c-0.493-0.34-0.667-1.249-1.34-2.625c-1.153,2.983-2.109,5.456-3.303,8.546
			c2.175-0.468,3.665-0.79,5.159-1.112c0.164,2.081,0.164,2.081-4.432,4.248c0.625,4.611,3.513,6.944,8.742,7.063
			c6.553,0.146,9.5-2.94,10.953-11.656c4.255,2.78,6.399,7.029,7.502,12.095c0,1.814,0,3.631,0,5.445
			c-0.144,0.499-0.315,0.99-0.428,1.496c-1.2,5.387-4.452,8.606-9.359,9.249c-9.185,1.204-19.21-7.402-20.454-17.587
			c-0.191-1.567-0.166-3.172-0.424-4.724c-0.109-0.652-0.692-1.209-1.358-2.296c-0.23,1.081-0.31,1.295-0.315,1.513
			c-0.014,0.525-0.011,1.056,0.017,1.582c0.275,5.359,2.164,10.063,4.758,14.487c4.29,7.311,4.35,14.602,0.199,22.087
			c-2.628,4.738-4.914,9.712-7.353,14.582c-0.136,0-0.272,0-0.408,0c-2.324-5.096-4.456-10.313-7.015-15.259
			c-3.962-7.658-4.005-14.911,0.665-22.235c3.001-4.708,4.543-10.07,4.392-16.162c-0.656,0.3-1.348,0.734-1.511,1.344
			c-0.365,1.362-0.488,2.807-0.67,4.226c-1.248,9.684-6.616,15.274-14.727,17.862c-6.991,2.229-12.68-0.726-14.881-7.411
			c-0.436-1.325-0.651-2.74-0.97-4.116C49.303,361.885,49.303,361.13,49.303,360.372z"/>
	</g>
	<g>
		<path fill="#FFFFFF" d="M275.998,91.269h-14.862v-0.671c2.125-0.201,3.483-0.699,4.076-1.493s0.89-2.622,0.89-5.485V53.494
			l-11.038,7.582v36.97l-2.817,6.139V61.143l-11.574-7.75v28.449c0,3.69,0.45,6.095,1.351,7.213
			c0.585,0.738,1.857,1.252,3.815,1.543v0.671h-16.17v-0.671c2.228-0.335,3.685-0.995,4.372-1.979
			c0.686-0.984,1.029-3.243,1.029-6.777V55.037c0-2.46-0.348-4.059-1.04-4.797c-0.56-0.715-1.958-1.163-4.193-1.342v-0.738h12.412
			l11.608,8.287l12.077-8.287h10.064v0.738c-1.991,0.157-3.294,0.632-3.908,1.426c-0.615,0.794-0.923,2.365-0.923,4.713v29.354
			c0,2.394,0.313,3.993,0.939,4.798c0.604,0.649,1.9,1.118,3.892,1.409V91.269z"/>
	</g>
	<g>
		<path fill="#FFFFFF" d="M241.66,113.891c0.239-0.819,0.37-1.706,0.745-2.439c0.43-0.836,1.077-1.534,1.764-2.282
			c0.339,2.925,1.793,4.162,4.278,3.915c1.484-0.148,2.24-0.881,2.548-2.365c-0.615-0.295-1.455-0.303-1.577-1.447
			c0.524,0.135,1.019,0.262,1.766,0.454c-0.388-1.057-0.704-1.917-1.078-2.939c-0.171,0.323-0.241,0.424-0.284,0.539
			c-0.199,0.54-0.495,0.949-1.076,0.866c-0.58-0.085-0.972-0.483-1.124-1.099c-0.174-0.7-0.106-1.388,0.378-1.929
			c0.472-0.527,1.042-0.434,1.611-0.213c0.964,0.376,1.561,1.146,1.863,2.203c0.221,0.778,0.399,1.57,0.608,2.4
			c0.229,0,0.469,0,0.644,0c-0.734-10.758-0.792-21.468,0.784-32.372c0.304,2.395,0.507,4.58,0.87,6.733
			c0.837,4.974,0.424,9.99,0.5,14.988c0.05,3.294,0.147,6.598-0.498,9.855c-0.049,0.247,0.126,0.55,0.198,0.826
			c0.194-0.23,0.473-0.425,0.565-0.699c0.205-0.618,0.277-1.291,0.478-1.914c0.377-1.168,1.136-1.911,2.238-2.155
			c0.815-0.182,1.444,0.334,1.608,1.251c0.168,0.945-0.272,1.966-1.006,2.067c-0.333,0.046-0.734-0.237-1.056-0.458
			c-0.167-0.115-0.225-0.422-0.455-0.888c-0.389,1.009-0.712,1.845-1.116,2.89c0.736-0.158,1.24-0.268,1.746-0.376
			c0.056,0.704,0.056,0.704-1.499,1.437c0.212,1.56,1.188,2.349,2.957,2.39c2.215,0.049,3.213-0.995,3.703-3.943
			c1.438,0.94,2.164,2.378,2.539,4.091c0,0.613,0,1.228,0,1.841c-0.051,0.169-0.108,0.335-0.146,0.506
			c-0.405,1.822-1.506,2.911-3.165,3.128c-3.104,0.406-6.498-2.504-6.919-5.949c-0.063-0.53-0.055-1.073-0.142-1.597
			c-0.037-0.221-0.234-0.409-0.46-0.778c-0.078,0.366-0.104,0.438-0.105,0.513c-0.005,0.177-0.005,0.356,0.006,0.535
			c0.091,1.812,0.731,3.404,1.609,4.899c1.45,2.473,1.471,4.939,0.065,7.471c-0.888,1.603-1.66,3.284-2.486,4.932
			c-0.047,0-0.093,0-0.138,0c-0.787-1.724-1.507-3.488-2.372-5.161c-1.34-2.591-1.356-5.043,0.225-7.52
			c1.015-1.593,1.537-3.406,1.485-5.466c-0.223,0.101-0.457,0.249-0.512,0.454c-0.124,0.461-0.165,0.949-0.226,1.429
			c-0.423,3.275-2.237,5.166-4.981,6.042c-2.365,0.754-4.29-0.246-5.032-2.507c-0.148-0.448-0.221-0.927-0.329-1.392
			C241.66,114.404,241.66,114.148,241.66,113.891z"/>
	</g>
</g>
</svg>
