<?xml version="1.0" encoding="utf-8"?>
<!-- Generator: Adobe Illustrator 16.0.3, SVG Export Plug-In . SVG Version: 6.00 Build 0)  -->
<!DOCTYPE svg PUBLIC "-//W3C//DTD SVG 1.1//EN" "http://www.w3.org/Graphics/SVG/1.1/DTD/svg11.dtd">
<svg version="1.1" id="Capa_1" xmlns="http://www.w3.org/2000/svg" xmlns:xlink="http://www.w3.org/1999/xlink" x="0px" y="0px"
	 width="390px" height="600px" viewBox="0 0 390 600" enable-background="new 0 0 390 600" xml:space="preserve">
<g>
	<defs>
		<rect id="SVGID_1_" width="390" height="600"/>
	</defs>
	<clipPath id="SVGID_2_">
		<use xlink:href="#SVGID_1_"  overflow="visible"/>
	</clipPath>
	<g clip-path="url(#SVGID_2_)">
		<defs>
			<rect id="SVGID_3_" x="-33" y="-3" width="454.381" height="603.364"/>
		</defs>
		<clipPath id="SVGID_4_">
			<use xlink:href="#SVGID_3_"  overflow="visible"/>
		</clipPath>
		<g transform="matrix(1 0 0 1 1.529688e-006 -1.057584e-007)" clip-path="url(#SVGID_4_)">
			<image overflow="visible" width="675" height="900" xlink:href="82DAF857.jpg"  transform="matrix(0.6732 0 0 0.6704 -33 -3)">
			</image>
		</g>
	</g>
</g>
<g>
	
		<rect x="78.955" y="286.269" fill-rule="evenodd" clip-rule="evenodd" fill="none" stroke="#000000" stroke-width="4" stroke-miterlimit="10" width="214.045" height="58.325"/>
	<path display="none" fill-rule="evenodd" clip-rule="evenodd" fill="#FFFFFF" d="M188.909,331.55
		c-0.06,0.063-0.092,0.102-0.127,0.135c-1.089,1.007-2.163,2.03-3.271,3.016c-0.836,0.743-1.726,1.426-2.573,2.156
		c-0.689,0.596-0.997,1.356-0.85,2.271c0.13,0.813,0.526,1.52,0.927,2.22c0.057,0.1,0.231,0.18,0.357,0.189
		c1.237,0.109,2.441,0.038,3.489-0.746c3.223-2.411,6.46-4.805,9.666-7.239c3.23-2.452,6.443-4.93,9.64-7.424
		c1.625-1.27,2.871-2.859,3.68-4.764c0.729-1.714,0.586-3.344-0.568-4.847c-0.702-0.915-1.56-1.677-2.541-2.264
		c-2.039-1.222-4.111-2.392-6.172-3.579c-0.444-0.256-0.897-0.498-1.357-0.753c0.06-0.11,0.104-0.199,0.154-0.285
		c1.279-2.206,2.577-4.401,3.832-6.621c0.533-0.945,1.003-1.928,1.157-3.033c0.207-1.443,0.009-2.781-0.974-3.916
		c-0.401-0.465-0.806-0.943-1.286-1.316c-3.34-2.586-7.13-3.629-11.32-3.137c-1.424,0.167-2.727,0.711-3.829,1.665
		c-0.841,0.729-1.095,1.676-0.743,2.733c0.232,0.701,0.664,1.282,1.104,1.863c0.347,0.457,0.683,0.926,0.978,1.417
		c0.314,0.523,0.521,1.095,0.463,1.725c-0.168,1.787-0.328,3.575-0.509,5.362c-0.181,1.795-0.381,3.59-0.577,5.384
		c-0.229,2.096-0.478,4.188-0.692,6.285c-0.193,1.896-0.393,3.792-0.513,5.694c-0.111,1.756,0.106,3.484,0.793,5.128
		C187.653,329.845,188.215,330.726,188.909,331.55z M143.049,324.495c4.395,1.162,8.733,2.311,13.094,3.464
		c0.159-0.417,0.306-0.809,0.459-1.215c-1.927-0.91-3.83-1.808-5.732-2.708c-1.9-0.898-3.8-1.801-5.712-2.707
		c0.041-0.07,0.063-0.114,0.091-0.153c1.411-2.076,2.819-4.156,4.236-6.229c0.753-1.102,1.45-2.233,1.878-3.507
		c0.863-2.565,0.495-4.894-1.373-6.913c-1.294-1.398-2.894-2.355-4.671-2.986c-1.869-0.663-3.772-1.229-5.66-1.838
		c-0.552-0.18-1.104-0.366-1.673-0.554c0,0.169-0.004,0.309,0.002,0.449c0.163,4,0.323,8,0.494,11.998
		c0.155,3.596,0.311,7.192,0.488,10.786c0.142,2.891,0.322,5.78,0.467,8.671c0.024,0.482,0.162,0.9,0.506,1.219
		c0.717,0.662,1.458,1.298,2.193,1.948c0.224-0.147,0.417-0.297,0.628-0.41c0.224-0.119,0.292-0.278,0.292-0.532
		c-0.01-2.774-0.006-5.55-0.006-8.326C143.049,324.822,143.049,324.692,143.049,324.495z"/>
	<path fill-rule="evenodd" clip-rule="evenodd" d="M229.21,290.741c2.05,0.944,3.354,2.634,4.416,4.528
		c1.021,1.824,1.286,3.826,1.123,5.887c-0.241,3.025-0.521,6.05-0.759,9.076c-0.292,3.7-0.557,7.402-0.833,11.104
		c-0.229,3.066-0.456,6.135-0.687,9.203c-0.051,0.663-0.092,1.329-0.181,1.987c-0.047,0.344-0.143,0.698-0.299,1.008
		c-0.412,0.816-0.869,1.608-1.338,2.465c-0.654-0.867-1.29-1.681-1.894-2.52c-0.282-0.391-0.374-0.859-0.401-1.344
		c-0.21-3.843-0.105-7.688-0.107-11.533c0-0.595,0.01-1.19,0.021-1.785c0.004-0.156-0.042-0.245-0.207-0.267
		c-1.551-0.197-3.096-0.464-4.666-0.43c-0.963,0.021-1.887,0.193-2.661,0.831c-0.565,0.466-0.952,1.067-1.267,1.716
		c-0.737,1.521-1.233,3.13-1.714,4.743c-0.969,3.26-1.622,6.595-2.359,9.909c-0.316,1.416-0.657,2.827-0.988,4.238
		c-0.195,0.831-0.645,1.538-1.098,2.243c-0.282,0.438-0.547,0.888-0.82,1.331c-0.021,0-0.04,0-0.059,0
		c-0.253-0.433-0.497-0.868-0.754-1.298c-0.316-0.527-0.646-1.045-0.962-1.573c-0.414-0.696-0.421-1.434-0.286-2.221
		c0.508-2.999,1.058-5.989,1.855-8.931c0.723-2.67,1.759-5.229,2.758-7.8c3.641-9.38,7.545-18.652,11.445-27.927
		c0.268-0.635,0.65-1.225,1.009-1.818c0.237-0.398,0.631-0.632,1.044-0.826C228.766,290.741,228.987,290.741,229.21,290.741z
		 M222.501,314.465c1.962,0,3.874,0,5.803,0c0.295-4.117,0.587-8.215,0.88-12.315c-0.208-0.042-0.37-0.06-0.522-0.108
		c-0.264-0.086-0.397-0.019-0.522,0.254c-1.591,3.459-3.198,6.91-4.802,10.364C223.063,313.253,222.788,313.844,222.501,314.465z"/>
	<path fill-rule="evenodd" clip-rule="evenodd" d="M128.604,290.741c1.147,0.258,1.914,1.068,2.68,1.872
		c1.421,1.489,2.446,3.195,2.861,5.237c0.266,1.309,0.252,2.623,0.131,3.945c-0.205,2.25-0.4,4.5-0.583,6.753
		c-0.184,2.251-0.352,4.504-0.521,6.757c-0.154,2.042-0.298,4.083-0.45,6.125c-0.169,2.264-0.342,4.526-0.518,6.788
		c-0.101,1.277-0.195,2.556-0.33,3.829c-0.045,0.436-0.152,0.881-0.325,1.281c-0.383,0.886-0.825,1.745-1.29,2.712
		c-0.716-1.158-1.428-2.236-2.059-3.361c-0.375-0.668-0.294-1.456-0.314-2.197c-0.053-2.036-0.087-4.075-0.094-6.112
		c-0.006-1.807,0.03-3.613,0.062-5.419c0.004-0.253-0.067-0.342-0.322-0.38c-1.626-0.238-3.246-0.532-4.901-0.452
		c-1.368,0.065-2.433,0.649-3.158,1.827c-0.688,1.117-1.111,2.346-1.529,3.578c-1.091,3.223-1.813,6.541-2.545,9.858
		c-0.467,2.125-0.948,4.248-1.455,6.364c-0.113,0.474-0.311,0.941-0.552,1.363c-0.39,0.678-0.848,1.315-1.291,1.991
		c-0.623-0.87-1.231-1.711-1.829-2.56c-0.461-0.653-0.496-1.364-0.334-2.136c0.557-2.643,1.038-5.301,1.625-7.935
		c0.657-2.949,1.756-5.758,2.841-8.57c3.31-8.583,6.865-17.066,10.413-25.553c0.532-1.273,1.092-2.534,1.646-3.798
		c0.077-0.175,0.186-0.335,0.286-0.498c0.385-0.625,0.854-1.148,1.613-1.311C128.441,290.741,128.521,290.741,128.604,290.741z
		 M127.876,314.479c0.021-0.24,0.043-0.469,0.06-0.698c0.089-1.245,0.177-2.493,0.267-3.74c0.174-2.422,0.351-4.844,0.52-7.267
		c0.042-0.616,0.029-0.609-0.563-0.753c-0.219-0.054-0.329-0.019-0.432,0.208c-1.709,3.781-3.43,7.555-5.147,11.331
		c-0.137,0.299-0.269,0.6-0.412,0.919C124.09,314.479,125.973,314.479,127.876,314.479z"/>
	<path fill-rule="evenodd" clip-rule="evenodd" d="M177.967,290.741c2.64,1.311,4.903,4.415,5.395,7.344
		c0.244,1.451,0.179,2.892,0.041,4.343c-0.189,1.977-0.363,3.957-0.524,5.938c-0.188,2.29-0.359,4.584-0.53,6.877
		c-0.153,2.053-0.292,4.105-0.445,6.157c-0.191,2.586-0.389,5.17-0.588,7.754c-0.078,1.016-0.164,2.03-0.252,3.047
		c-0.016,0.18-0.043,0.362-0.093,0.535c-0.338,1.182-1.126,2.125-1.67,3.224c-0.512-0.771-0.985-1.508-1.485-2.228
		c-0.617-0.893-0.738-1.902-0.745-2.942c-0.022-3.341-0.042-6.681-0.06-10.02c-0.005-0.747-0.001-1.494-0.001-2.285
		c-0.487-0.05-0.983-0.122-1.482-0.148c-1.269-0.065-2.537-0.158-3.805-0.149c-1.449,0.012-2.531,0.705-3.234,1.984
		c-0.697,1.272-1.139,2.645-1.601,4.009c-0.97,2.87-1.608,5.824-2.246,8.78c-0.484,2.244-0.986,4.488-1.512,6.724
		c-0.104,0.442-0.303,0.882-0.544,1.268c-0.448,0.717-0.961,1.393-1.481,2.136c-0.624-1.023-1.244-2.006-1.825-3.009
		c-0.296-0.511-0.251-1.077-0.152-1.651c0.507-2.951,1.056-5.893,1.805-8.795c0.709-2.749,1.745-5.384,2.766-8.024
		c3.67-9.481,7.626-18.846,11.55-28.224c0.217-0.519,0.494-1.015,0.773-1.503c0.297-0.517,0.705-0.931,1.283-1.14
		C177.524,290.741,177.745,290.741,177.967,290.741z M171.359,314.488c0.093,0.01,0.151,0.024,0.209,0.024
		c1.756,0.002,3.512-0.003,5.268,0.007c0.24,0.001,0.255-0.127,0.266-0.297c0.086-1.247,0.171-2.495,0.259-3.742
		c0.152-2.173,0.308-4.345,0.46-6.518c0.042-0.6,0.08-1.2,0.121-1.806c-0.203-0.042-0.377-0.06-0.535-0.118
		c-0.285-0.105-0.416-0.012-0.541,0.266c-1.489,3.316-2.994,6.628-4.494,9.939C172.039,312.985,171.704,313.727,171.359,314.488z"/>
	<path fill-rule="evenodd" clip-rule="evenodd" d="M84.689,319.694c0.037-0.368,0.082-0.736,0.11-1.104
		c0.496-6.36,2.625-12.137,6.192-17.404c1.127-1.666,2.736-2.518,4.698-2.748c1.065-0.124,2.135-0.141,3.195,0.057
		c0.205,0.039,0.409,0.118,0.593,0.216c0.462,0.243,0.699,0.687,0.557,1.188c-0.121,0.429-0.276,0.883-0.54,1.232
		c-0.902,1.188-1.839,2.35-2.798,3.494c-3.7,4.409-6.041,9.448-7.049,15.113c-0.423,2.381-0.631,4.78-0.573,7.196
		c0.017,0.708,0.117,1.433,0.306,2.115c0.375,1.358,1.351,1.972,2.757,1.874c1.048-0.074,2.04-0.369,3.016-0.729
		c2.559-0.94,4.831-2.396,7.06-3.933c0.549-0.379,0.892-0.867,1.065-1.485c0.159-0.573,0.283-1.155,0.422-1.732
		c0.038-0.155,0.057-0.322,0.12-0.468c0.132-0.309,0.033-0.441-0.259-0.614c-0.518-0.307-0.937-0.315-1.394,0.095
		c-0.5,0.45-1.088,0.529-1.721,0.29c-0.875-0.33-1.752-0.653-2.702-1.007c0.51-0.75,0.957-1.478,1.475-2.146
		c0.435-0.561,1.118-0.689,1.777-0.697c2.576-0.036,4.798,0.883,6.544,2.757c1.793,1.924,1.792,4.986,0.049,7.045
		c-0.586,0.692-1.317,1.272-2.023,1.854c-1.378,1.136-2.772,2.254-4.316,3.164c-2.115,1.247-4.385,1.963-6.857,1.81
		c-3.547-0.224-6.227-1.908-8.019-4.977c-0.992-1.696-1.429-3.562-1.565-5.506c-0.031-0.44-0.079-0.878-0.12-1.317
		C84.689,322.117,84.689,320.905,84.689,319.694z"/>
	<path fill-rule="evenodd" clip-rule="evenodd" d="M188.909,331.55c-0.694-0.824-1.255-1.705-1.662-2.68
		c-0.687-1.644-0.904-3.372-0.793-5.128c0.12-1.902,0.32-3.798,0.513-5.694c0.214-2.097,0.462-4.189,0.692-6.285
		c0.196-1.794,0.396-3.589,0.577-5.384c0.181-1.787,0.341-3.575,0.509-5.362c0.058-0.63-0.149-1.202-0.463-1.725
		c-0.295-0.491-0.631-0.96-0.978-1.417c-0.44-0.581-0.872-1.162-1.104-1.863c-0.352-1.058-0.098-2.005,0.743-2.733
		c1.102-0.954,2.404-1.498,3.829-1.665c4.19-0.492,7.98,0.55,11.32,3.137c0.48,0.373,0.885,0.851,1.286,1.316
		c0.982,1.135,1.181,2.473,0.974,3.916c-0.154,1.105-0.624,2.088-1.157,3.033c-1.255,2.22-2.553,4.415-3.832,6.621
		c-0.05,0.086-0.095,0.175-0.154,0.285c0.46,0.255,0.913,0.497,1.357,0.753c2.061,1.188,4.133,2.357,6.172,3.579
		c0.981,0.587,1.839,1.349,2.541,2.264c1.154,1.503,1.297,3.133,0.568,4.847c-0.809,1.904-2.055,3.494-3.68,4.764
		c-3.196,2.494-6.409,4.972-9.64,7.424c-3.206,2.435-6.443,4.828-9.666,7.239c-1.048,0.784-2.252,0.855-3.489,0.746
		c-0.126-0.01-0.3-0.09-0.357-0.189c-0.401-0.7-0.797-1.407-0.927-2.22c-0.147-0.915,0.16-1.676,0.85-2.271
		c0.847-0.73,1.737-1.413,2.573-2.156c1.108-0.985,2.182-2.009,3.271-3.016C188.817,331.651,188.849,331.612,188.909,331.55z
		 M190.192,330.391c0.091-0.024,0.132-0.03,0.167-0.047c2.59-1.208,5.1-2.555,7.425-4.229c3.383-2.437,6.087-5.455,7.939-9.21
		c0.07-0.142,0.134-0.285,0.201-0.43c-0.107-0.069-0.182-0.12-0.259-0.167c-1.723-1.019-3.583-1.643-5.556-1.946
		c-1.753-0.271-3.514-0.309-5.281-0.247c-1.139,0.041-2.275,0.104-3.413,0.16c-0.149,0.009-0.288-0.001-0.3,0.234
		c-0.093,1.791-0.203,3.584-0.307,5.375c-0.153,2.607-0.309,5.215-0.461,7.821C190.295,328.591,190.245,329.477,190.192,330.391z
		 M193.245,308.26c0.072-0.078,0.105-0.112,0.137-0.15c1.036-1.237,2.073-2.474,3.105-3.713c1.278-1.535,2.545-3.082,3.518-4.837
		c0.273-0.493,0.497-1.047,0.592-1.6c0.184-1.06-0.391-1.792-1.248-2.322c-0.938-0.581-1.936-1.036-3.013-1.297
		c-1.98-0.482-3.65,0.205-4.815,1.945c0.125,0.111,0.272,0.208,0.375,0.338c0.374,0.47,0.796,0.917,1.085,1.437
		c0.551,0.988,0.562,2.091,0.458,3.185c-0.118,1.264-0.297,2.522-0.417,3.787C192.923,306.102,192.983,307.166,193.245,308.26z"/>
	<path fill-rule="evenodd" clip-rule="evenodd" d="M143.049,324.495c0,0.197,0,0.327,0,0.456c0,2.776-0.004,5.552,0.006,8.326
		c0,0.254-0.067,0.413-0.292,0.532c-0.212,0.113-0.405,0.263-0.628,0.41c-0.735-0.65-1.477-1.286-2.193-1.948
		c-0.344-0.318-0.482-0.736-0.506-1.219c-0.145-2.891-0.325-5.78-0.467-8.671c-0.177-3.594-0.333-7.19-0.488-10.786
		c-0.171-3.998-0.331-7.998-0.494-11.998c-0.006-0.14-0.002-0.28-0.002-0.449c0.57,0.188,1.121,0.374,1.673,0.554
		c1.888,0.609,3.791,1.175,5.66,1.838c1.778,0.631,3.377,1.588,4.671,2.986c1.868,2.02,2.236,4.348,1.373,6.913
		c-0.429,1.273-1.125,2.405-1.878,3.507c-1.417,2.072-2.825,4.152-4.236,6.229c-0.028,0.039-0.051,0.083-0.091,0.153
		c1.912,0.906,3.812,1.809,5.712,2.707c1.902,0.9,3.805,1.798,5.732,2.708c-0.153,0.406-0.3,0.798-0.459,1.215
		C151.783,326.806,147.444,325.657,143.049,324.495z M144.006,312.199c0.682-1.711,1.371-3.447,2.064-5.186
		c0.285-0.715,0.255-1.438,0.04-2.162c-0.089-0.298-0.222-0.586-0.287-0.889c-0.107-0.495-0.443-0.621-0.888-0.699
		c-0.688-0.123-1.124,0.095-1.481,0.713c-0.546,0.941-0.907,1.904-0.801,3.01c0.133,1.393,0.292,2.786,0.371,4.184
		C143.058,311.792,143.313,312.105,144.006,312.199z"/>
	<path fill-rule="evenodd" clip-rule="evenodd" d="M286.441,313.218c-0.139,1.251-0.27,2.504-0.42,3.755
		c-0.218,1.804-0.519,3.591-1.076,5.326c-1.117,3.479-3.262,6.132-6.436,7.931c-2.502,1.415-4.85,1.127-6.934-0.85
		c-2.019-1.915-3.439-4.233-4.374-6.843c-0.991-2.761-1.18-5.605-0.822-8.502c0.291-2.354,0.93-4.618,1.735-6.84
		c0.916-2.516,2.763-3.899,5.358-4.262c3.636-0.505,6.862,0.467,9.583,2.947c1.945,1.775,3.052,4.004,3.317,6.635
		c0.023,0.23,0.005,0.464,0.005,0.696C286.4,313.214,286.421,313.216,286.441,313.218z M282.424,311.904
		c-0.07-0.659-0.078-1.334-0.227-1.978c-0.448-1.924-1.553-3.331-3.461-3.989c-1.117-0.386-2.135-0.175-2.936,0.75
		c-0.596,0.684-1.202,1.363-1.75,2.085c-3.132,4.13-4.522,8.726-3.652,13.909c0.183,1.082,0.497,2.123,1.164,3.018
		c0.797,1.067,1.855,1.522,3.178,1.271c1.386-0.265,2.518-1.012,3.516-1.964c1.53-1.462,2.49-3.28,3.162-5.262
		c0.416-1.229,0.578-2.512,0.688-3.799C282.219,314.602,282.501,313.27,282.424,311.904z"/>
	<path fill-rule="evenodd" clip-rule="evenodd" d="M267.009,303.229c-3.806-0.274-7.555-0.544-11.336-0.817
		c-1.109,10.983-2.217,21.936-3.327,32.916c-1.094-0.172-2.153-0.34-2.87-1.272c-0.455-0.591-0.617-1.296-0.633-2.018
		c-0.023-1.148,0.002-2.299,0.025-3.448c0.027-1.36,0.068-2.722,0.118-4.083c0.125-3.365,0.231-6.732,0.396-10.097
		c0.142-2.901,0.359-5.797,0.524-8.697c0.041-0.704,0.049-1.411,0.014-2.114c-0.037-0.764-0.411-1.242-1.155-1.396
		c-0.766-0.159-1.553-0.235-2.334-0.299c-1.115-0.09-2.238-0.104-3.352-0.205c-1.905-0.172-3.371-1.027-4.19-2.826
		c-0.024-0.054-0.045-0.108-0.089-0.216c0.48-0.158,0.94-0.332,1.412-0.459c1.615-0.438,3.272-0.6,4.938-0.637
		c5.293-0.117,10.48,0.567,15.555,2.083c1.471,0.439,2.9,0.988,4.233,1.759c0.738,0.425,1.429,0.915,1.94,1.613
		C266.914,303.063,266.94,303.116,267.009,303.229z"/>
</g>
</svg>
