<?xml version="1.0" encoding="utf-8"?>
<!-- Generator: Adobe Illustrator 16.0.3, SVG Export Plug-In . SVG Version: 6.00 Build 0)  -->
<!DOCTYPE svg PUBLIC "-//W3C//DTD SVG 1.1//EN" "http://www.w3.org/Graphics/SVG/1.1/DTD/svg11.dtd">
<svg version="1.1" id="Capa_1" xmlns="http://www.w3.org/2000/svg" xmlns:xlink="http://www.w3.org/1999/xlink" x="0px" y="0px"
	 width="390px" height="600px" viewBox="0 0 390 600" enable-background="new 0 0 390 600" xml:space="preserve">
<image overflow="visible" opacity="0.7" width="1350" height="900" xlink:href="7CEC3207.jpg"  transform="matrix(1 0 0 1 -545.9502 1)">
</image>
<g>
	
		<rect x="26.211" y="16.997" fill-rule="evenodd" clip-rule="evenodd" fill="none" stroke="#000000" stroke-width="4" stroke-miterlimit="10" width="266.315" height="72.568"/>
	<path display="none" fill-rule="evenodd" clip-rule="evenodd" fill="#FFFFFF" d="M159.283,73.335
		c-0.074,0.079-0.114,0.126-0.159,0.168c-1.354,1.252-2.69,2.525-4.069,3.75c-1.041,0.925-2.147,1.775-3.201,2.685
		c-0.858,0.74-1.241,1.687-1.058,2.826c0.162,1.011,0.655,1.89,1.154,2.761c0.072,0.125,0.287,0.223,0.444,0.236
		c1.54,0.136,3.037,0.047,4.342-0.929c4.01-3,8.037-5.979,12.025-9.007c4.02-3.051,8.017-6.133,11.995-9.237
		c2.021-1.578,3.571-3.558,4.577-5.927c0.907-2.132,0.729-4.161-0.707-6.031c-0.874-1.139-1.94-2.085-3.161-2.816
		c-2.539-1.52-5.116-2.975-7.68-4.453c-0.553-0.318-1.116-0.619-1.689-0.936c0.074-0.138,0.13-0.248,0.192-0.354
		c1.591-2.746,3.207-5.477,4.767-8.239c0.665-1.177,1.249-2.399,1.442-3.773c0.255-1.796,0.009-3.461-1.212-4.874
		c-0.5-0.578-1.003-1.174-1.601-1.637c-4.156-3.217-8.87-4.515-14.084-3.902c-1.772,0.208-3.393,0.885-4.763,2.072
		c-1.046,0.906-1.362,2.084-0.925,3.4c0.289,0.872,0.826,1.595,1.375,2.317c0.432,0.568,0.849,1.153,1.216,1.764
		c0.391,0.651,0.649,1.362,0.576,2.146c-0.208,2.224-0.408,4.448-0.632,6.67c-0.226,2.235-0.475,4.467-0.719,6.7
		c-0.286,2.607-0.594,5.211-0.86,7.821c-0.24,2.358-0.489,4.718-0.639,7.083c-0.138,2.186,0.133,4.335,0.987,6.38
		C157.722,71.214,158.42,72.31,159.283,73.335z M102.225,64.558c5.467,1.446,10.867,2.875,16.292,4.311
		c0.196-0.52,0.38-1.005,0.571-1.512c-2.397-1.133-4.765-2.25-7.132-3.37c-2.364-1.119-4.728-2.24-7.107-3.369
		c0.051-0.086,0.079-0.14,0.113-0.19c1.756-2.584,3.508-5.17,5.271-7.75c0.937-1.371,1.803-2.778,2.337-4.363
		c1.075-3.192,0.616-6.09-1.708-8.601c-1.611-1.74-3.601-2.933-5.813-3.717c-2.325-0.825-4.693-1.528-7.042-2.287
		c-0.688-0.223-1.374-0.454-2.082-0.688c0,0.209-0.006,0.383,0.001,0.557c0.204,4.977,0.403,9.953,0.616,14.928
		c0.192,4.474,0.387,8.948,0.606,13.421c0.177,3.596,0.401,7.19,0.581,10.786c0.03,0.603,0.201,1.122,0.63,1.519
		c0.891,0.824,1.813,1.615,2.729,2.424c0.278-0.185,0.519-0.37,0.782-0.511c0.278-0.149,0.363-0.346,0.362-0.662
		c-0.012-3.453-0.008-6.906-0.008-10.359C102.225,64.965,102.225,64.804,102.225,64.558z"/>
	<path fill-rule="evenodd" clip-rule="evenodd" d="M209.426,22.562c2.551,1.175,4.174,3.278,5.495,5.633
		c1.271,2.27,1.601,4.761,1.397,7.326c-0.3,3.765-0.649,7.527-0.944,11.292c-0.363,4.604-0.692,9.21-1.036,13.816
		c-0.284,3.816-0.568,7.634-0.855,11.451c-0.062,0.825-0.113,1.653-0.225,2.473c-0.058,0.427-0.177,0.869-0.371,1.252
		c-0.513,1.016-1.082,2.003-1.665,3.067c-0.814-1.079-1.605-2.092-2.356-3.135c-0.35-0.486-0.465-1.068-0.499-1.672
		c-0.261-4.781-0.13-9.565-0.133-14.349c0-0.74,0.011-1.481,0.026-2.222c0.005-0.194-0.052-0.305-0.258-0.332
		c-1.93-0.245-3.851-0.578-5.806-0.536c-1.198,0.026-2.348,0.241-3.311,1.035c-0.703,0.579-1.185,1.329-1.575,2.135
		c-0.918,1.891-1.535,3.894-2.133,5.902c-1.206,4.055-2.018,8.204-2.936,12.328c-0.393,1.762-0.817,3.518-1.23,5.274
		c-0.244,1.033-0.803,1.913-1.366,2.79c-0.351,0.545-0.68,1.104-1.02,1.657c-0.025,0-0.05,0-0.075,0
		c-0.312-0.539-0.616-1.082-0.936-1.616c-0.393-0.656-0.805-1.3-1.196-1.957c-0.516-0.866-0.525-1.784-0.358-2.762
		c0.633-3.732,1.316-7.453,2.309-11.112c0.9-3.323,2.189-6.506,3.432-9.705c4.531-11.67,9.388-23.208,14.241-34.746
		c0.333-0.791,0.81-1.525,1.255-2.263c0.297-0.495,0.785-0.786,1.3-1.027C208.873,22.562,209.149,22.562,209.426,22.562z
		 M201.078,52.078c2.441,0,4.821,0,7.22,0c0.367-5.122,0.73-10.221,1.095-15.322c-0.258-0.052-0.459-0.073-0.648-0.134
		c-0.329-0.107-0.495-0.023-0.65,0.315c-1.98,4.304-3.979,8.599-5.975,12.896C201.777,50.569,201.436,51.306,201.078,52.078z"/>
	<path fill-rule="evenodd" clip-rule="evenodd" d="M84.25,22.562c1.429,0.322,2.382,1.329,3.335,2.329
		c1.768,1.853,3.044,3.975,3.56,6.515c0.33,1.629,0.313,3.264,0.163,4.91c-0.255,2.799-0.497,5.599-0.725,8.401
		s-0.438,5.604-0.649,8.408c-0.191,2.54-0.371,5.081-0.561,7.621c-0.211,2.815-0.425,5.631-0.645,8.445
		c-0.125,1.59-0.242,3.18-0.409,4.764c-0.057,0.542-0.189,1.096-0.405,1.595c-0.477,1.102-1.028,2.172-1.605,3.374
		c-0.891-1.441-1.777-2.783-2.563-4.183c-0.466-0.83-0.366-1.812-0.391-2.733c-0.067-2.535-0.109-5.07-0.118-7.605
		c-0.007-2.247,0.037-4.495,0.076-6.741c0.005-0.315-0.084-0.426-0.4-0.473c-2.023-0.297-4.039-0.662-6.099-0.563
		c-1.702,0.081-3.027,0.808-3.929,2.274c-0.854,1.39-1.383,2.918-1.901,4.451c-1.358,4.01-2.257,8.138-3.166,12.266
		c-0.582,2.645-1.18,5.286-1.811,7.919c-0.141,0.588-0.387,1.17-0.688,1.697c-0.484,0.843-1.055,1.637-1.605,2.477
		c-0.774-1.083-1.532-2.128-2.275-3.184c-0.574-0.813-0.618-1.698-0.416-2.658c0.692-3.288,1.291-6.596,2.021-9.873
		c0.817-3.669,2.185-7.164,3.534-10.663c4.119-10.679,8.542-21.234,12.956-31.794c0.662-1.584,1.36-3.152,2.049-4.725
		c0.095-0.217,0.23-0.417,0.355-0.619c0.48-0.776,1.063-1.429,2.009-1.63C84.049,22.562,84.15,22.562,84.25,22.562z M83.347,52.096
		c0.025-0.299,0.054-0.583,0.074-0.869c0.111-1.55,0.221-3.102,0.332-4.653c0.216-3.014,0.437-6.028,0.646-9.042
		c0.053-0.767,0.036-0.758-0.7-0.937c-0.273-0.066-0.41-0.024-0.538,0.26c-2.126,4.703-4.268,9.398-6.405,14.097
		c-0.169,0.372-0.333,0.747-0.511,1.144C78.636,52.096,80.978,52.096,83.347,52.096z"/>
	<path fill-rule="evenodd" clip-rule="evenodd" d="M145.67,22.562c3.285,1.63,6.101,5.493,6.712,9.137
		c0.303,1.804,0.222,3.598,0.049,5.403c-0.235,2.461-0.451,4.924-0.652,7.388c-0.233,2.851-0.446,5.705-0.659,8.558
		c-0.19,2.554-0.363,5.107-0.553,7.66c-0.239,3.217-0.484,6.433-0.732,9.648c-0.097,1.264-0.205,2.527-0.314,3.79
		c-0.02,0.224-0.054,0.45-0.116,0.666c-0.421,1.47-1.401,2.644-2.079,4.01c-0.636-0.957-1.227-1.874-1.847-2.771
		c-0.768-1.109-0.919-2.366-0.927-3.66c-0.028-4.156-0.052-8.312-0.075-12.467c-0.005-0.929-0.001-1.856-0.001-2.841
		c-0.607-0.063-1.224-0.153-1.845-0.186c-1.578-0.081-3.157-0.197-4.734-0.185c-1.802,0.013-3.149,0.876-4.023,2.469
		c-0.868,1.583-1.418,3.29-1.992,4.987c-1.207,3.57-2.001,7.247-2.794,10.924c-0.603,2.794-1.227,5.584-1.881,8.367
		c-0.129,0.55-0.376,1.096-0.677,1.578c-0.558,0.891-1.195,1.732-1.843,2.657c-0.777-1.275-1.548-2.496-2.271-3.745
		c-0.368-0.635-0.312-1.339-0.189-2.053c0.632-3.672,1.314-7.332,2.246-10.942c0.882-3.421,2.171-6.699,3.442-9.985
		c4.566-11.797,9.489-23.449,14.37-35.117c0.27-0.646,0.614-1.263,0.962-1.871c0.369-0.643,0.876-1.157,1.596-1.417
		C145.118,22.562,145.394,22.562,145.67,22.562z M137.449,52.107c0.116,0.014,0.188,0.031,0.26,0.031
		c2.185,0.002,4.37-0.004,6.555,0.009c0.298,0.001,0.317-0.158,0.332-0.37c0.106-1.551,0.212-3.104,0.322-4.656
		c0.19-2.704,0.383-5.406,0.573-8.109c0.053-0.747,0.099-1.494,0.149-2.247c-0.252-0.053-0.468-0.074-0.665-0.146
		c-0.355-0.131-0.518-0.015-0.672,0.33c-1.854,4.127-3.725,8.246-5.592,12.368C138.293,50.238,137.877,51.16,137.449,52.107z"/>
	<path fill-rule="evenodd" clip-rule="evenodd" d="M29.613,58.584c0.046-0.458,0.101-0.916,0.137-1.374
		c0.618-7.913,3.266-15.101,7.704-21.655c1.403-2.072,3.405-3.132,5.845-3.417c1.325-0.154,2.656-0.176,3.975,0.071
		c0.255,0.047,0.509,0.146,0.738,0.268c0.575,0.303,0.869,0.854,0.694,1.479c-0.15,0.534-0.344,1.099-0.673,1.532
		c-1.122,1.478-2.288,2.925-3.481,4.348c-4.604,5.487-7.517,11.757-8.77,18.805c-0.526,2.962-0.786,5.947-0.714,8.953
		c0.021,0.882,0.146,1.784,0.381,2.632c0.467,1.69,1.681,2.454,3.431,2.332c1.304-0.092,2.538-0.458,3.753-0.905
		c3.184-1.171,6.01-2.981,8.784-4.893c0.685-0.472,1.11-1.079,1.326-1.849c0.199-0.712,0.352-1.436,0.526-2.155
		c0.047-0.194,0.07-0.4,0.148-0.582c0.164-0.384,0.041-0.549-0.322-0.765c-0.644-0.381-1.165-0.393-1.734,0.118
		c-0.622,0.559-1.354,0.658-2.141,0.361c-1.088-0.411-2.18-0.813-3.361-1.253c0.635-0.933,1.19-1.836,1.835-2.669
		c0.541-0.697,1.39-0.857,2.21-0.868c3.205-0.043,5.97,1.099,8.143,3.431c2.23,2.394,2.229,6.204,0.061,8.766
		c-0.73,0.862-1.64,1.582-2.518,2.306c-1.715,1.413-3.449,2.804-5.37,3.936c-2.631,1.551-5.456,2.444-8.532,2.251
		c-4.414-0.277-7.748-2.374-9.978-6.19c-1.233-2.112-1.778-4.432-1.947-6.852c-0.038-0.547-0.099-1.092-0.148-1.637
		C29.613,61.599,29.613,60.091,29.613,58.584z"/>
	<path fill-rule="evenodd" clip-rule="evenodd" d="M159.283,73.335c-0.863-1.025-1.561-2.121-2.068-3.334
		c-0.854-2.045-1.125-4.194-0.987-6.38c0.15-2.366,0.398-4.725,0.639-7.083c0.267-2.609,0.575-5.214,0.86-7.821
		c0.244-2.233,0.493-4.465,0.719-6.7c0.225-2.222,0.424-4.447,0.632-6.67c0.073-0.784-0.185-1.495-0.576-2.146
		c-0.367-0.611-0.784-1.195-1.216-1.764c-0.548-0.722-1.085-1.446-1.375-2.317c-0.438-1.316-0.121-2.495,0.925-3.4
		c1.371-1.187,2.991-1.864,4.763-2.072c5.214-0.613,9.928,0.685,14.084,3.902c0.598,0.463,1.101,1.06,1.601,1.637
		c1.222,1.413,1.467,3.078,1.212,4.874c-0.194,1.374-0.778,2.596-1.442,3.773c-1.56,2.762-3.175,5.493-4.767,8.239
		c-0.062,0.106-0.118,0.216-0.192,0.354c0.573,0.317,1.136,0.618,1.689,0.936c2.563,1.478,5.141,2.933,7.68,4.453
		c1.221,0.731,2.287,1.678,3.161,2.816c1.435,1.87,1.613,3.899,0.707,6.031c-1.006,2.369-2.556,4.349-4.577,5.927
		c-3.978,3.104-7.975,6.186-11.995,9.237c-3.989,3.028-8.016,6.007-12.025,9.007c-1.305,0.976-2.802,1.065-4.342,0.929
		c-0.157-0.013-0.373-0.111-0.444-0.236c-0.499-0.871-0.992-1.75-1.154-2.761c-0.183-1.14,0.2-2.086,1.058-2.826
		c1.054-0.91,2.161-1.76,3.201-2.685c1.379-1.225,2.715-2.498,4.069-3.75C159.169,73.462,159.209,73.415,159.283,73.335z
		 M160.879,71.895c0.113-0.032,0.164-0.04,0.208-0.06c3.222-1.502,6.344-3.179,9.237-5.261c4.209-3.031,7.574-6.787,9.88-11.459
		c0.085-0.175,0.166-0.353,0.25-0.534c-0.135-0.087-0.227-0.15-0.323-0.208c-2.143-1.267-4.458-2.045-6.913-2.422
		c-2.18-0.335-4.373-0.382-6.57-0.306c-1.417,0.05-2.831,0.129-4.247,0.199c-0.185,0.009-0.357-0.001-0.373,0.291
		c-0.116,2.229-0.251,4.459-0.382,6.689c-0.191,3.244-0.383,6.487-0.574,9.73C161.008,69.654,160.945,70.755,160.879,71.895z
		 M164.679,44.358c0.089-0.096,0.131-0.14,0.171-0.187c1.288-1.54,2.579-3.078,3.863-4.621c1.59-1.91,3.166-3.835,4.375-6.018
		c0.34-0.614,0.619-1.303,0.737-1.991c0.229-1.317-0.487-2.229-1.553-2.888c-1.167-0.723-2.408-1.289-3.748-1.614
		c-2.466-0.599-4.542,0.255-5.992,2.42c0.156,0.138,0.338,0.259,0.467,0.421c0.466,0.585,0.991,1.142,1.351,1.788
		c0.685,1.229,0.698,2.602,0.57,3.962c-0.147,1.573-0.37,3.138-0.519,4.711C164.277,41.673,164.353,42.998,164.679,44.358z"/>
	<path fill-rule="evenodd" clip-rule="evenodd" d="M102.225,64.558c0,0.246,0,0.407,0,0.568c0,3.453-0.004,6.906,0.008,10.359
		c0.001,0.315-0.084,0.513-0.362,0.662c-0.263,0.141-0.504,0.326-0.782,0.511c-0.915-0.809-1.837-1.6-2.729-2.424
		c-0.429-0.396-0.6-0.916-0.63-1.519c-0.18-3.596-0.404-7.19-0.581-10.786c-0.219-4.473-0.414-8.947-0.606-13.421
		c-0.213-4.975-0.412-9.952-0.616-14.928c-0.007-0.174-0.001-0.348-0.001-0.557c0.708,0.234,1.394,0.465,2.082,0.688
		c2.348,0.759,4.717,1.462,7.042,2.287c2.211,0.784,4.202,1.977,5.813,3.717c2.324,2.511,2.783,5.408,1.708,8.601
		c-0.534,1.584-1.4,2.992-2.337,4.363c-1.762,2.579-3.515,5.166-5.271,7.75c-0.034,0.05-0.063,0.104-0.113,0.19
		c2.379,1.128,4.743,2.25,7.107,3.369c2.367,1.12,4.734,2.237,7.132,3.37c-0.191,0.506-0.375,0.992-0.571,1.512
		C113.091,67.433,107.692,66.004,102.225,64.558z M103.415,49.26c0.847-2.129,1.706-4.29,2.567-6.452
		c0.355-0.891,0.317-1.79,0.05-2.69c-0.11-0.371-0.276-0.73-0.358-1.106c-0.133-0.615-0.551-0.771-1.104-0.87
		c-0.856-0.152-1.398,0.119-1.843,0.888c-0.679,1.172-1.128,2.369-0.996,3.743c0.167,1.734,0.363,3.468,0.461,5.207
		C102.235,48.753,102.551,49.143,103.415,49.26z"/>
	<path fill-rule="evenodd" clip-rule="evenodd" d="M280.635,50.527c-0.173,1.557-0.336,3.116-0.523,4.672
		c-0.271,2.244-0.646,4.467-1.339,6.627c-1.39,4.33-4.059,7.63-8.008,9.867c-3.112,1.761-6.034,1.402-8.626-1.057
		c-2.512-2.383-4.279-5.268-5.443-8.514c-1.232-3.435-1.467-6.975-1.021-10.579c0.361-2.928,1.156-5.745,2.159-8.51
		c1.139-3.13,3.437-4.852,6.666-5.301c4.523-0.629,8.538,0.58,11.923,3.666c2.421,2.208,3.797,4.982,4.129,8.256
		c0.029,0.286,0.005,0.576,0.005,0.865C280.582,50.522,280.608,50.524,280.635,50.527z M275.635,48.893
		c-0.088-0.821-0.096-1.661-0.282-2.461c-0.558-2.394-1.932-4.144-4.306-4.964c-1.39-0.479-2.655-0.217-3.652,0.933
		c-0.74,0.853-1.495,1.696-2.177,2.595c-3.897,5.138-5.627,10.857-4.545,17.305c0.228,1.347,0.618,2.642,1.449,3.755
		c0.99,1.328,2.308,1.894,3.953,1.581c1.725-0.329,3.133-1.258,4.374-2.443c1.903-1.819,3.099-4.081,3.935-6.547
		c0.517-1.529,0.719-3.125,0.855-4.726C275.38,52.249,275.731,50.59,275.635,48.893z"/>
	<path fill-rule="evenodd" clip-rule="evenodd" d="M256.456,38.098c-4.735-0.341-9.399-0.677-14.104-1.016
		c-1.38,13.665-2.759,27.292-4.14,40.954c-1.361-0.214-2.68-0.422-3.571-1.583c-0.566-0.736-0.769-1.612-0.787-2.511
		c-0.029-1.429,0.002-2.861,0.031-4.29c0.034-1.693,0.086-3.387,0.147-5.08c0.155-4.188,0.287-8.377,0.492-12.563
		c0.176-3.609,0.446-7.213,0.652-10.821c0.051-0.875,0.061-1.755,0.017-2.629c-0.046-0.952-0.512-1.546-1.438-1.738
		c-0.953-0.197-1.932-0.294-2.903-0.372c-1.388-0.112-2.784-0.13-4.171-0.255c-2.369-0.215-4.193-1.279-5.214-3.517
		c-0.03-0.066-0.056-0.135-0.11-0.269c0.599-0.196,1.17-0.413,1.757-0.572c2.011-0.543,4.072-0.745,6.146-0.792
		c6.585-0.146,13.039,0.706,19.353,2.592c1.83,0.547,3.608,1.229,5.268,2.188c0.918,0.53,1.776,1.139,2.415,2.008
		C256.338,37.893,256.371,37.958,256.456,38.098z"/>
</g>
</svg>
