<?xml version="1.0" encoding="utf-8"?>
<!-- Generator: Adobe Illustrator 16.0.3, SVG Export Plug-In . SVG Version: 6.00 Build 0)  -->
<!DOCTYPE svg PUBLIC "-//W3C//DTD SVG 1.1//EN" "http://www.w3.org/Graphics/SVG/1.1/DTD/svg11.dtd">
<svg version="1.1" id="Capa_1" xmlns="http://www.w3.org/2000/svg" xmlns:xlink="http://www.w3.org/1999/xlink" x="0px" y="0px"
	 width="195px" height="82px" viewBox="0 0 195 82" enable-background="new 0 0 195 82" xml:space="preserve">
<path fill="#FFFFFD" d="M137.334,63.859c0,6.705-5.631,12.141-12.575,12.141H64.242c-6.945,0-12.575-5.436-12.575-12.141V23.391
	c0-6.705,5.629-12.141,12.575-12.141h60.517c6.944,0,12.575,5.436,12.575,12.141V63.859z"/>
<g>
	<path fill="#FFFFFF" stroke="#490C3D" stroke-width="1.8" stroke-miterlimit="10" d="M94.234,77.254
		c-10.833,0-21.666,0.003-32.499-0.001C53.892,77.25,49.5,72.865,49.5,65.049c0-14.501-0.003-29.003,0-43.506
		c0.002-7.332,4.511-11.844,11.887-11.848c21.899-0.012,43.798-0.012,65.696,0c7.381,0.003,11.884,4.51,11.888,11.848
		c0.002,14.619,0.002,29.237,0,43.855c-0.004,7.334-4.513,11.841-11.888,11.852C116.133,77.266,105.186,77.254,94.234,77.254z
		 M64.237,31.047c0,14.387,0,28.391,0,42.43c20.051,0,39.986,0,59.908,0c0-14.131,0-28.149,0-42.35
		c-0.557,0.425-0.93,0.697-1.289,0.987c-8.932,7.191-17.873,14.368-26.774,21.594c-1.302,1.058-2.318,1.165-3.669,0.06
		c-5.941-4.871-11.945-9.664-17.928-14.483C71.145,36.595,67.803,33.913,64.237,31.047z M127.916,73.445
		c4.214,0.154,7.396-2.854,7.42-7.147c0.078-15.196,0.059-30.394,0.01-45.59c-0.01-3.38-1.938-5.885-4.869-6.976
		c-1.172-0.436-2.037-0.258-3.018,0.54c-10.384,8.449-20.805,16.855-31.214,25.274c-1.888,1.526-2.17,1.525-4.037,0.015
		c-10.41-8.418-20.83-16.825-31.219-25.269c-0.963-0.782-1.824-1.007-3.01-0.56c-3.14,1.182-4.875,3.804-4.878,7.689
		c-0.01,14.673-0.009,29.347,0.008,44.019c0.001,0.925,0.076,1.873,0.286,2.77c0.747,3.188,3.801,5.465,7.065,5.182
		c0-0.66,0-1.345,0-2.029c0-14.207-0.001-28.414,0.003-42.621c0-0.639-0.033-1.295,0.098-1.912c0.286-1.343,1.487-1.869,2.664-1.18
		c0.547,0.321,1.029,0.758,1.527,1.16c9.203,7.412,18.402,14.828,27.604,22.242c0.62,0.497,1.253,0.979,1.884,1.474
		c8.021-6.461,15.906-12.815,23.794-19.167c2.266-1.825,4.507-3.686,6.819-5.452c1.506-1.151,2.881-0.494,3.043,1.368
		c0.045,0.52,0.02,1.047,0.02,1.571c0.001,14.149,0.001,28.3,0.001,42.447C127.916,71.979,127.916,72.669,127.916,73.445z
		 M94.214,36.542c9.47-7.658,18.845-15.239,28.515-23.059c-19.156,0-37.887,0-57.037,0C75.352,21.292,84.698,28.847,94.214,36.542z"
		/>
	<path fill="#BC144F" d="M127.916,73.445c0-0.776,0-1.469,0-2.158c0-14.148,0-28.298-0.001-42.447c0-0.523,0.026-1.051-0.019-1.571
		c-0.164-1.862-1.539-2.519-3.045-1.368c-2.313,1.766-4.554,3.627-6.818,5.452c-7.887,6.352-15.773,12.706-23.794,19.167
		c-0.631-0.492-1.264-0.976-1.884-1.473c-9.202-7.414-18.401-14.83-27.604-22.242c-0.498-0.401-0.979-0.838-1.527-1.16
		c-1.176-0.688-2.377-0.163-2.664,1.18c-0.131,0.617-0.098,1.273-0.098,1.912c-0.005,14.207-0.003,28.416-0.003,42.623
		c0,0.685,0,1.369,0,2.027c-3.265,0.284-6.319-1.994-7.065-5.181c-0.21-0.896-0.285-1.845-0.286-2.771
		C53.091,50.768,53.09,36.094,53.1,21.421c0.003-3.885,1.739-6.507,4.878-7.689c1.186-0.447,2.047-0.222,3.01,0.56
		c10.389,8.444,20.809,16.851,31.219,25.269c1.867,1.51,2.149,1.511,4.037-0.015c10.41-8.419,20.831-16.825,31.214-25.274
		c0.979-0.797,1.847-0.976,3.019-0.54c2.932,1.091,4.858,3.595,4.869,6.976c0.049,15.196,0.067,30.394-0.011,45.59
		C135.313,70.591,132.13,73.6,127.916,73.445z"/>
	<path fill="#F5C910" d="M99.438,57.004c0.521-0.667,0.847-1.287,1.347-1.691c4.06-3.287,8.155-6.533,12.235-9.799
		c0.978-0.783,2.022-1.108,2.894,0.002c0.849,1.088,0.358,2.043-0.638,2.836c-4.09,3.25-8.145,6.551-12.284,9.735
		c-0.569,0.438-1.579,0.533-2.328,0.423C100.236,58.445,99.924,57.636,99.438,57.004z"/>
	<path fill="#F5C910" d="M118.693,44.9c-0.455-0.676-1.139-1.301-1.305-2.041c-0.22-0.992,1.297-2.268,2.413-2.224
		c1.103,0.042,1.697,0.646,1.716,1.748C121.538,43.505,120.273,44.654,118.693,44.9z"/>
</g>
</svg>
